<svg width="8" height="8" viewBox="0 0 8 8" fill="none" xmlns="http://www.w3.org/2000/svg">
<symbol id="visible">
  <path d="M22.6799 10.7079C22.9641 11.0623 23.1215 11.5227 23.1215 12C23.1215 12.4774 22.9641 12.9378 22.6799 13.2922C20.8799 15.4715 16.7827 19.7144 11.9998 19.7144C7.21699 19.7144 3.11984 15.4715 1.31984 13.2922C1.03554 12.9378 0.878174 12.4774 0.878174 12C0.878174 11.5227 1.03554 11.0623 1.31984 10.7079C3.11984 8.52855 7.21699 4.28564 11.9998 4.28564C16.7827 4.28564 20.8799 8.52855 22.6799 10.7079Z" stroke="white" stroke-linecap="round" stroke-linejoin="round"/>
  <path d="M11.9999 15.4284C13.8934 15.4284 15.4284 13.8934 15.4284 11.9999C15.4284 10.1063 13.8934 8.57129 11.9999 8.57129C10.1063 8.57129 8.57129 10.1063 8.57129 11.9999C8.57129 13.8934 10.1063 15.4284 11.9999 15.4284Z" stroke="white" stroke-linecap="round" stroke-linejoin="round"/>
</symbol>

<symbol id="hidden">
  <path d="M6.22152 6.21319C7.92336 5.1073 9.89534 4.28564 12.0001 4.28564C16.7829 4.28564 20.8801 8.52855 22.6801 10.7079C22.9644 11.0623 23.1217 11.5227 23.1217 12C23.1217 12.4774 22.9644 12.9378 22.6801 13.2922C21.6879 14.4935 19.9976 16.3218 17.8795 17.7208M14.5715 19.3194C13.7446 19.5695 12.884 19.7144 12.0001 19.7144C7.21723 19.7144 3.12009 15.4715 1.32008 13.2922C1.03579 12.9378 0.878418 12.4774 0.878418 12C0.878418 11.5227 1.03579 11.0623 1.32008 10.7079C1.89038 10.0174 2.69126 9.11978 3.67149 8.21559" stroke="white" stroke-linecap="round" stroke-linejoin="round"/>
  <path d="M14.4244 14.4245C15.7633 13.0855 15.7633 10.9147 14.4244 9.57573C13.0855 8.2368 10.9146 8.2368 9.57568 9.57573" stroke="white" stroke-linecap="round" stroke-linejoin="round"/>
  <path d="M23.1429 23.1429L0.857178 0.857178" stroke="white" stroke-linecap="round" stroke-linejoin="round"/>
</symbol> 
</svg>
