<svg width="20" height="20" viewBox="0 0 20 20" fill="none" xmlns="http://www.w3.org/2000/svg">
<circle cx="10" cy="10" r="9.47917" fill="#B40000" stroke="#B40000" stroke-width="1.04167"/>
<path fill-rule="evenodd" clip-rule="evenodd" d="M7.87894 6.86876C7.59999 6.58982 7.14773 6.58982 6.86879 6.86876C6.58984 7.14771 6.58984 7.59997 6.86879 7.87892L9.39417 10.4043L6.86879 12.9297C6.58984 13.2086 6.58984 13.6609 6.86879 13.9398C7.14773 14.2188 7.59999 14.2188 7.87894 13.9398L10.4043 11.4144L12.9297 13.9398C13.2087 14.2188 13.6609 14.2188 13.9399 13.9398C14.2188 13.6609 14.2188 13.2086 13.9399 12.9297L11.4145 10.4043L13.9399 7.87892C14.2188 7.59996 14.2188 7.14771 13.9399 6.86876C13.6609 6.58982 13.2087 6.58981 12.9297 6.86876L10.4043 9.39414L7.87894 6.86876Z" fill="white"/>
</svg>
