<svg width="24" height="24" viewBox="0 0 24 24" fill="none" xmlns="http://www.w3.org/2000/svg">
<path d="M8.99999 13C8.71665 13 8.47915 12.9042 8.28749 12.7125C8.09582 12.5208 7.99999 12.2833 7.99999 12V5.82499L6.12499 7.69999C5.94165 7.88332 5.71249 7.97499 5.43749 7.97499C5.16249 7.97499 4.92499 7.88332 4.72499 7.69999C4.52499 7.49999 4.42499 7.26249 4.42499 6.98749C4.42499 6.71249 4.52499 6.47499 4.72499 6.27499L8.29999 2.69999C8.39999 2.59999 8.50832 2.52915 8.62499 2.48749C8.74165 2.44582 8.86665 2.42499 8.99999 2.42499C9.13332 2.42499 9.25832 2.44582 9.37499 2.48749C9.49165 2.52915 9.59999 2.59999 9.69999 2.69999L13.3 6.29999C13.5 6.49999 13.5958 6.73332 13.5875 6.99999C13.5792 7.26665 13.475 7.49999 13.275 7.69999C13.075 7.88332 12.8417 7.97915 12.575 7.98749C12.3083 7.99582 12.075 7.89999 11.875 7.69999L9.99999 5.82499V12C9.99999 12.2833 9.90415 12.5208 9.71249 12.7125C9.52082 12.9042 9.28332 13 8.99999 13ZM15 21.575C14.8667 21.575 14.7417 21.5542 14.625 21.5125C14.5083 21.4708 14.4 21.4 14.3 21.3L10.7 17.7C10.5 17.5 10.4042 17.2667 10.4125 17C10.4208 16.7333 10.525 16.5 10.725 16.3C10.925 16.1167 11.1583 16.0208 11.425 16.0125C11.6917 16.0042 11.925 16.1 12.125 16.3L14 18.175V12C14 11.7167 14.0958 11.4792 14.2875 11.2875C14.4792 11.0958 14.7167 11 15 11C15.2833 11 15.5208 11.0958 15.7125 11.2875C15.9042 11.4792 16 11.7167 16 12V18.175L17.875 16.3C18.0583 16.1167 18.2875 16.025 18.5625 16.025C18.8375 16.025 19.075 16.1167 19.275 16.3C19.475 16.5 19.575 16.7375 19.575 17.0125C19.575 17.2875 19.475 17.525 19.275 17.725L15.7 21.3C15.6 21.4 15.4917 21.4708 15.375 21.5125C15.2583 21.5542 15.1333 21.575 15 21.575Z" fill="#929292"/>
</svg>
