<svg width="163" height="25" viewBox="0 0 163 25" fill="none" xmlns="http://www.w3.org/2000/svg">
<g clip-path="url(#clip0_167_5343)">
<path d="M17.6814 11.6399C17.5032 10.3794 16.7463 9.49823 16.2008 8.95165C15.2879 8.03697 14.375 7.11114 13.451 6.1853C12.3823 5.10331 11.3025 4.03247 10.2337 2.95047C8.89782 1.61192 7.26133 1.23266 5.49125 1.85732C3.68776 2.49313 2.55226 3.97669 2.51886 5.75027C2.50772 6.31917 2.49658 7.03305 2.49658 7.78041C2.49658 8.09274 2.65244 8.23776 2.65244 8.23776L3.75457 9.34206C3.88817 9.45361 4.15534 9.40898 4.15534 9.25282C4.15534 8.03697 4.16647 6.68726 4.17759 5.76143C4.19986 4.69059 4.89009 3.80937 6.03675 3.40781C7.20567 2.99509 8.16307 3.21818 9.05367 4.11054C10.1224 5.19255 11.2023 6.26339 12.271 7.34538C13.1839 8.27121 14.0967 9.1859 15.0207 10.1117C15.633 10.7252 15.9447 11.2718 16.0338 11.863C16.1674 12.8 15.9225 13.5585 15.299 14.2055C14.375 15.1424 13.4288 16.0906 12.5159 16.9942C11.3581 18.143 10.1669 19.3365 9.00914 20.5301C8.30778 21.2552 7.23906 21.5341 6.21487 21.2441C5.32426 20.9986 4.65631 20.374 4.36687 19.5597C4.26667 19.292 3.97722 19.3812 3.89928 19.4481L3.09774 20.2513C3.09774 20.2513 3.03096 20.3293 3.01982 20.4298C3.00869 20.5413 3.01982 20.6305 3.07549 20.7198C3.63212 21.746 4.57838 22.5045 5.76956 22.8392C6.18146 22.9507 6.60451 23.0176 7.02755 23.0176C8.21873 23.0176 9.36539 22.549 10.2003 21.6902C11.347 20.5079 12.5382 19.3143 13.6848 18.1653C14.5977 17.2507 15.5551 16.3025 16.4791 15.3544C17.4699 14.3728 17.8818 13.0788 17.6814 11.6399Z" fill="#F5F5F7"/>
<path d="M5.80286 15.6334C6.18136 15.243 6.32609 14.7745 6.24817 14.2279C6.19249 13.8152 5.95871 13.4917 5.66926 13.2017C4.75639 12.2759 3.84352 11.3612 2.91952 10.4354C2.40741 9.92225 1.81739 9.77724 1.12718 10.0226C0.459223 10.2569 0.0250537 10.7923 0.0139211 11.4616C-0.00834399 12.4543 0.00277771 14.451 0.00277771 14.451C0.00277771 15.2876 0.00277771 16.1242 0.00277771 16.9609C0.00277771 17.2285 0.00277771 17.5074 0.0584406 17.764C0.347887 19.0467 1.99551 19.4595 2.88612 18.5447C3.86578 17.5743 4.84545 16.615 5.80286 15.6334Z" fill="#F5F5F7"/>
<path d="M24.4277 16.771C24.205 16.771 24.0938 16.6484 24.0938 16.4363V8.05925C24.0938 7.83617 24.2163 7.72461 24.4277 7.72461H26.6988C29.3594 7.72461 30.751 9.27511 30.751 12.2534C30.751 15.2317 29.3594 16.7821 26.6988 16.7821H24.4277V16.771ZM29.0033 12.2422C29.0033 10.1117 28.2796 9.09663 26.8435 9.09663H25.7524V15.4101H26.8435C28.2796 15.4101 29.0033 14.3839 29.0033 12.2422Z" fill="#F5F5F7"/>
<path d="M38.8778 8.05897V13.8259C38.8778 15.778 37.6532 17.0049 35.5826 17.0049C33.5007 17.0049 32.2874 15.778 32.2874 13.8259V8.05897C32.2874 7.83587 32.4097 7.72433 32.6213 7.72433H33.6121C33.8348 7.72433 33.9461 7.84703 33.9461 8.05897V13.7924C33.9461 14.986 34.5137 15.6441 35.5826 15.6441C36.6512 15.6441 37.2078 14.9971 37.2078 13.7924V8.05897C37.2078 7.83587 37.3414 7.72433 37.553 7.72433H38.5215C38.7442 7.71318 38.8778 7.83587 38.8778 8.05897Z" fill="#F5F5F7"/>
<path d="M40.8926 16.492V8.11491C40.8926 7.89182 41.0151 7.78027 41.2267 7.78027H42.6405C42.8297 7.78027 42.9299 7.88066 43.0301 8.07029L45.2342 12.0525L47.3717 8.07029C47.5053 7.84719 47.5499 7.78027 47.7503 7.78027H49.1642C49.3867 7.78027 49.5203 7.90297 49.5203 8.11491V16.492C49.5203 16.7151 49.3867 16.8267 49.1642 16.8267H48.2735C48.0619 16.8267 47.9396 16.704 47.9396 16.492V13.0452C47.9729 11.9744 47.9952 9.98888 47.9952 9.98888L46.136 13.3464C46.0248 13.5361 45.9579 13.6364 45.7576 13.6364H44.7445C44.544 13.6364 44.4662 13.5361 44.3659 13.3464L42.4289 9.83272C42.4289 9.83272 42.4845 11.9744 42.4845 13.0452V16.492C42.4845 16.7151 42.3622 16.8267 42.1506 16.8267H41.2599C41.0151 16.8267 40.8926 16.704 40.8926 16.492Z" fill="#F5F5F7"/>
<path d="M51.6467 16.4363V8.05925C51.6467 7.83617 51.7692 7.72461 51.9807 7.72461H54.1405C56.5339 7.72461 57.881 8.77315 57.881 10.6248C57.881 12.5211 56.5339 13.6254 54.1516 13.6254H53.3054V16.4363C53.3054 16.6594 53.1831 16.771 52.9715 16.771H51.9807C51.7692 16.771 51.6467 16.6594 51.6467 16.4363ZM54.2963 12.3649C55.5654 12.3649 56.1776 11.7849 56.1776 10.636C56.1776 9.56513 55.5654 8.98509 54.3853 8.98509H53.3054V12.3649H54.2963Z" fill="#F5F5F7"/>
<path d="M59.6178 16.771C59.3951 16.771 59.2837 16.6484 59.2837 16.4363V8.05925C59.2837 7.83617 59.4062 7.72461 59.6178 7.72461H61.8888C64.5495 7.72461 65.941 9.27511 65.941 12.2534C65.941 15.2317 64.5495 16.7821 61.8888 16.7821H59.6178V16.771ZM64.1932 12.2422C64.1932 10.1117 63.4696 9.09663 62.0335 9.09663H60.9425V15.4101H62.0335C63.4696 15.4101 64.1932 14.3839 64.1932 12.2422Z" fill="#F5F5F7"/>
<path d="M66.1303 16.3912L68.7019 8.00291C68.7575 7.81328 68.8911 7.71289 69.0914 7.71289H70.5832C70.7725 7.71289 70.9172 7.80212 70.9729 8.00291L73.5445 16.3912C73.6114 16.6254 73.4889 16.7704 73.2551 16.7704H72.2197C72.0305 16.7704 71.8858 16.6923 71.8413 16.4805L71.3403 14.6622H68.3122L67.8112 16.4805C67.7556 16.6923 67.6331 16.7704 67.4327 16.7704H66.4197C66.1747 16.7704 66.0523 16.6254 66.1303 16.3912ZM71.0175 13.4017L69.8374 9.01798H69.8151L68.635 13.4017H71.0175Z" fill="#F5F5F7"/>
<path d="M75.1031 16.4363V13.3688L72.4201 8.12618C72.2977 7.88077 72.3979 7.72461 72.6539 7.72461H73.7227C73.923 7.72461 74.0455 7.81385 74.1235 7.97002L75.938 11.8964L77.7971 7.97002C77.8751 7.81385 78.0087 7.72461 78.1869 7.72461H79.2221C79.4782 7.72461 79.5896 7.88077 79.4671 8.12618L76.7619 13.3688V16.4363C76.7619 16.6594 76.6283 16.771 76.4278 16.771H75.437C75.2145 16.771 75.1031 16.6594 75.1031 16.4363Z" fill="#F5F5F7"/>
<path d="M79.5783 15.9007C79.4225 15.778 79.4114 15.6107 79.5226 15.4434L79.9011 14.8745C80.0236 14.696 80.1795 14.6737 80.3575 14.8187C80.9476 15.2649 81.7714 15.5661 82.4394 15.5661C83.4858 15.5661 84.087 15.0976 84.1093 14.3391C84.1204 13.3017 83.3857 13.0674 82.2056 12.6882C81.0144 12.2866 79.6897 11.7623 79.6897 10.1115C79.6897 8.56097 80.8808 7.5459 82.7288 7.5459C83.5971 7.5459 84.5434 7.82477 85.2003 8.2598C85.3783 8.37134 85.4007 8.54982 85.2781 8.72829L84.9108 9.26372C84.7995 9.43104 84.6436 9.46449 84.4543 9.35295C83.9534 9.04062 83.3301 8.86215 82.8067 8.86215C81.9162 8.86215 81.3707 9.28603 81.3707 9.96645C81.3707 10.7584 82.0275 11.0038 83.1074 11.3608C84.3431 11.74 85.8126 12.2308 85.8126 14.1606C85.8126 15.8449 84.4209 16.8711 82.5063 16.8711C81.4485 16.9047 80.3464 16.5253 79.5783 15.9007Z" fill="#F5F5F7"/>
</g>
<rect x="94.3938" width="68.5813" height="24.5813" rx="2.14532" fill="white"/>
<path d="M100.436 16.291C100.217 16.291 100.102 16.1752 100.102 15.9563V7.66685C100.102 7.44802 100.217 7.33218 100.436 7.33218H102.573C104.941 7.33218 106.28 8.3748 106.28 10.2026C106.28 12.0819 104.941 13.176 102.586 13.176H101.749V15.9563C101.749 16.1752 101.633 16.291 101.415 16.291H100.436ZM101.749 11.9274H102.727C103.989 11.9274 104.594 11.3482 104.594 10.2155C104.594 9.15999 103.989 8.58075 102.818 8.58075H101.749V11.9274ZM106.144 16.291C105.913 16.291 105.784 16.1494 105.861 15.9177L108.41 7.61536C108.461 7.42228 108.603 7.33218 108.796 7.33218H110.276C110.469 7.33218 110.611 7.42228 110.662 7.61536L113.211 15.9177C113.275 16.1494 113.16 16.291 112.928 16.291H111.898C111.705 16.291 111.564 16.2138 111.525 16.0078L111.023 14.2058H108.024L107.522 16.0078C107.47 16.2138 107.342 16.291 107.148 16.291H106.144ZM108.346 12.9572H110.714L109.543 8.61937H109.517L108.346 12.9572ZM120.746 15.892C120.875 16.1237 120.785 16.291 120.515 16.291H119.433C119.266 16.291 119.125 16.2267 119.034 16.0593L117.117 12.6869H116.022V15.9563C116.022 16.1752 115.907 16.291 115.688 16.291H114.709C114.491 16.291 114.375 16.1752 114.375 15.9563V7.66685C114.375 7.44802 114.491 7.33218 114.709 7.33218H116.846C119.215 7.33218 120.553 8.27183 120.553 10.0095C120.553 11.2967 119.832 12.1205 118.738 12.4809L120.746 15.892ZM116.022 11.5413H117.001C118.223 11.5413 118.867 10.9878 118.867 9.99666C118.867 9.06988 118.262 8.54213 117.091 8.54213H116.022V11.5413ZM123.861 16.291C123.642 16.291 123.513 16.1752 123.513 15.9563V8.65798H121.518C121.299 8.65798 121.171 8.54213 121.171 8.32331V7.66685C121.171 7.44802 121.299 7.33218 121.518 7.33218H127.182C127.388 7.33218 127.517 7.44802 127.517 7.66685V8.32331C127.517 8.54213 127.388 8.65798 127.182 8.65798H125.161V15.9563C125.161 16.1752 125.045 16.291 124.826 16.291H123.861ZM129.259 16.291C129.04 16.291 128.925 16.1752 128.925 15.9563V7.66685C128.925 7.44802 129.04 7.33218 129.259 7.33218H130.92C131.113 7.33218 131.242 7.42228 131.306 7.58961L133.996 14.9009H134.035C133.957 13.7553 133.945 12.3651 133.893 11.2066V7.66685C133.893 7.44802 134.022 7.33218 134.241 7.33218H135.116C135.335 7.33218 135.451 7.44802 135.451 7.66685V15.9563C135.451 16.1752 135.335 16.291 135.116 16.291H133.391C133.198 16.291 133.069 16.2009 133.005 16.0207L130.418 9.05701H130.379C130.443 10.1254 130.443 11.3997 130.482 12.4552V15.9563C130.482 16.1752 130.353 16.291 130.147 16.291H129.259ZM138.049 16.291C137.83 16.291 137.714 16.1752 137.714 15.9563V7.66685C137.714 7.44802 137.83 7.33218 138.049 7.33218H142.387C142.593 7.33218 142.721 7.44802 142.721 7.66685V8.27183C142.721 8.49065 142.593 8.60649 142.387 8.60649H139.362V11.0522H141.872C142.091 11.0522 142.219 11.1809 142.219 11.3868V11.9403C142.219 12.1463 142.091 12.275 141.872 12.275H139.362V15.0038H142.49C142.696 15.0038 142.824 15.1325 142.824 15.3514V15.9563C142.824 16.1752 142.696 16.291 142.49 16.291H138.049ZM151.053 15.892C151.181 16.1237 151.091 16.291 150.821 16.291H149.74C149.572 16.291 149.431 16.2267 149.341 16.0593L147.423 12.6869H146.329V15.9563C146.329 16.1752 146.213 16.291 145.994 16.291H145.016C144.797 16.291 144.681 16.1752 144.681 15.9563V7.66685C144.681 7.44802 144.797 7.33218 145.016 7.33218H147.152C149.521 7.33218 150.86 8.27183 150.86 10.0095C150.86 11.2967 150.139 12.1205 149.045 12.4809L151.053 15.892ZM146.329 11.5413H147.307C148.53 11.5413 149.173 10.9878 149.173 9.99666C149.173 9.06988 148.568 8.54213 147.397 8.54213H146.329V11.5413ZM154.576 16.5098C153.508 16.5098 152.388 16.1366 151.616 15.5058C151.461 15.3771 151.448 15.2098 151.564 15.0424L151.95 14.4761C152.079 14.2959 152.233 14.2701 152.414 14.4246C153.006 14.8751 153.842 15.1712 154.512 15.1712C155.567 15.1712 156.172 14.6949 156.198 13.9355C156.211 12.8928 155.464 12.6611 154.28 12.275C153.083 11.876 151.744 11.3482 151.744 9.68773C151.744 8.13023 152.941 7.11335 154.808 7.11335C155.683 7.11335 156.636 7.39654 157.292 7.83418C157.472 7.95003 157.498 8.13023 157.369 8.31044L156.996 8.85106C156.88 9.0184 156.726 9.05701 156.533 8.94116C156.031 8.63224 155.4 8.45203 154.872 8.45203C153.971 8.45203 153.43 8.8768 153.43 9.55902C153.43 10.3571 154.087 10.6016 155.181 10.9621C156.43 11.3482 157.91 11.8373 157.91 13.781C157.91 15.4801 156.507 16.5098 154.576 16.5098Z" fill="black"/>
<defs>
<clipPath id="clip0_167_5343">
<rect width="85.8126" height="21.4532" fill="white" transform="translate(0 1.56445)"/>
</clipPath>
</defs>
</svg>
