<svg width="129" height="32" viewBox="0 0 129 32" fill="none" xmlns="http://www.w3.org/2000/svg">
<symbol id="logo">
<g clip-path="url(#clip0_10_255)">
<path d="M26.8737 15.0288C26.608 13.1486 25.479 11.8342 24.6653 11.0189C23.3036 9.65455 21.9419 8.27357 20.5637 6.89256C18.9695 5.27863 17.3588 3.68135 15.7646 2.06741C13.772 0.0707997 11.331 -0.49491 8.69067 0.436842C6.00055 1.38524 4.3068 3.59815 4.25699 6.24366C4.24037 7.09224 4.22375 8.15709 4.22375 9.27186C4.22375 9.73773 4.45623 9.95405 4.45623 9.95405L6.10019 11.6013C6.29947 11.7676 6.698 11.7011 6.698 11.4681C6.698 9.65455 6.71459 7.64129 6.73119 6.2603C6.7644 4.66302 7.79396 3.34857 9.50435 2.74959C11.2479 2.13397 12.676 2.46674 14.0045 3.7978C15.5986 5.41175 17.2093 7.00904 18.8035 8.62296C20.1651 10.004 21.5268 11.3683 22.905 12.7493C23.8183 13.6644 24.2833 14.4797 24.4161 15.3615C24.6154 16.7592 24.2501 17.8906 23.3202 18.8556C21.9419 20.2532 20.5304 21.6675 19.1688 23.0153C17.4418 24.7289 15.665 26.5092 13.938 28.2895C12.8919 29.3711 11.2977 29.7871 9.77004 29.3546C8.44158 28.9885 7.44525 28.0567 7.01351 26.842C6.86406 26.4428 6.43231 26.5759 6.31605 26.6756L5.12046 27.8738C5.12046 27.8738 5.02084 27.9901 5.00422 28.1399C4.98763 28.3063 5.00422 28.4394 5.08727 28.5725C5.91755 30.1032 7.32901 31.2346 9.10581 31.7339C9.72021 31.9002 10.3512 32 10.9822 32C12.759 32 14.4694 31.3011 15.7148 30.02C17.4252 28.2564 19.202 26.4761 20.9124 24.7623C22.274 23.398 23.7022 21.9836 25.0804 20.5694C26.5583 19.1052 27.1727 17.1751 26.8737 15.0288Z" fill="#F5F5F7"/>
<path d="M9.15567 20.9854C9.72026 20.403 9.93614 19.7042 9.8199 18.8889C9.73686 18.2733 9.38814 17.7908 8.95639 17.3582C7.59473 15.9772 6.23308 14.6128 4.85483 13.2319C4.09095 12.4665 3.21086 12.2502 2.18132 12.6162C1.18499 12.9656 0.537371 13.7643 0.520765 14.7626C0.487554 16.2434 0.504143 19.2217 0.504143 19.2217C0.504143 20.4696 0.504143 21.7175 0.504143 22.9654C0.504143 23.3647 0.504143 23.7807 0.587171 24.1633C1.01892 26.0767 3.47655 26.6925 4.80499 25.3279C6.26629 23.8804 7.72759 22.4495 9.15567 20.9854Z" fill="#F5F5F7"/>
<path d="M36.9368 22.6825C36.6047 22.6825 36.4387 22.4996 36.4387 22.1833V9.68788C36.4387 9.35512 36.6215 9.18872 36.9368 9.18872H40.3244C44.2931 9.18872 46.3689 11.5015 46.3689 15.9439C46.3689 20.3864 44.2931 22.6991 40.3244 22.6991H36.9368V22.6825ZM43.7619 15.9273C43.7619 12.7494 42.6825 11.2353 40.5402 11.2353H38.9129V20.6526H40.5402C42.6825 20.6526 43.7619 19.1219 43.7619 15.9273Z" fill="#F5F5F7"/>
<path d="M58.4908 9.6877V18.2898C58.4908 21.2015 56.6642 23.0317 53.5756 23.0317C50.4703 23.0317 48.6604 21.2015 48.6604 18.2898V9.6877C48.6604 9.35492 48.8429 9.18854 49.1585 9.18854H50.6365C50.9686 9.18854 51.1346 9.37156 51.1346 9.6877V18.2399C51.1346 20.0202 51.9813 21.0018 53.5756 21.0018C55.1696 21.0018 55.9999 20.0368 55.9999 18.2399V9.6877C55.9999 9.35492 56.1992 9.18854 56.5147 9.18854H57.9594C58.2915 9.1719 58.4908 9.35492 58.4908 9.6877Z" fill="#F5F5F7"/>
<path d="M61.4965 22.2666V9.77113C61.4965 9.43835 61.6792 9.27197 61.9948 9.27197H64.1037C64.3859 9.27197 64.5354 9.42171 64.6848 9.70457L67.9726 15.6445L71.1609 9.70457C71.3602 9.37179 71.4266 9.27197 71.7256 9.27197H73.8345C74.1665 9.27197 74.3658 9.45499 74.3658 9.77113V22.2666C74.3658 22.5994 74.1665 22.7658 73.8345 22.7658H72.506C72.1904 22.7658 72.0079 22.5828 72.0079 22.2666V17.1253C72.0576 15.528 72.0909 12.5664 72.0909 12.5664L69.3177 17.5746C69.1517 17.8574 69.052 18.0072 68.7532 18.0072H67.2421C66.9431 18.0072 66.827 17.8574 66.6774 17.5746L63.7881 12.3334C63.7881 12.3334 63.8711 15.528 63.8711 17.1253V22.2666C63.8711 22.5994 63.6886 22.7658 63.373 22.7658H62.0444C61.6792 22.7658 61.4965 22.5828 61.4965 22.2666Z" fill="#F5F5F7"/>
<path d="M77.5375 22.1833V9.68788C77.5375 9.35512 77.7202 9.18872 78.0356 9.18872H81.2572C84.8273 9.18872 86.8367 10.7527 86.8367 13.5147C86.8367 16.3433 84.8273 17.9905 81.2738 17.9905H80.0116V22.1833C80.0116 22.5161 79.8291 22.6825 79.5135 22.6825H78.0356C77.7202 22.6825 77.5375 22.5161 77.5375 22.1833ZM81.4896 16.1103C83.3827 16.1103 84.2959 15.2451 84.2959 13.5314C84.2959 11.9341 83.3827 11.0689 81.6224 11.0689H80.0116V16.1103H81.4896Z" fill="#F5F5F7"/>
<path d="M89.4271 22.6825C89.095 22.6825 88.9288 22.4996 88.9288 22.1833V9.68788C88.9288 9.35512 89.1116 9.18872 89.4271 9.18872H92.8147C96.7834 9.18872 98.859 11.5015 98.859 15.9439C98.859 20.3864 96.7834 22.6991 92.8147 22.6991H89.4271V22.6825ZM96.252 15.9273C96.252 12.7494 95.1726 11.2353 93.0306 11.2353H91.4032V20.6526H93.0306C95.1726 20.6526 96.252 19.1219 96.252 15.9273Z" fill="#F5F5F7"/>
<path d="M99.1414 22.1169L102.977 9.60472C103.06 9.32186 103.259 9.17212 103.558 9.17212H105.784C106.066 9.17212 106.282 9.30522 106.365 9.60472L110.201 22.1169C110.3 22.4663 110.118 22.6826 109.769 22.6826H108.225C107.942 22.6826 107.726 22.566 107.66 22.25L106.913 19.5379H102.396L101.649 22.25C101.566 22.566 101.383 22.6826 101.084 22.6826H99.5731C99.2076 22.6826 99.0251 22.4663 99.1414 22.1169ZM106.431 17.6577L104.671 11.1188H104.638L102.877 17.6577H106.431Z" fill="#F5F5F7"/>
<path d="M112.525 22.1833V17.6078L108.523 9.78772C108.341 9.42166 108.49 9.18872 108.872 9.18872H110.466C110.765 9.18872 110.948 9.32184 111.064 9.55478L113.771 15.4115L116.544 9.55478C116.66 9.32184 116.86 9.18872 117.125 9.18872H118.669C119.051 9.18872 119.218 9.42166 119.035 9.78772L115 17.6078V22.1833C115 22.5161 114.8 22.6825 114.501 22.6825H113.023C112.692 22.6825 112.525 22.5161 112.525 22.1833Z" fill="#F5F5F7"/>
<path d="M119.201 21.3846C118.968 21.2016 118.952 20.952 119.118 20.7024L119.682 19.8539C119.865 19.5876 120.098 19.5544 120.363 19.7706C121.243 20.4362 122.472 20.8854 123.468 20.8854C125.029 20.8854 125.926 20.1866 125.959 19.0552C125.976 17.5078 124.88 17.1584 123.12 16.5927C121.343 15.9937 119.367 15.2117 119.367 12.7492C119.367 10.4365 121.144 8.92236 123.9 8.92236C125.195 8.92236 126.607 9.33834 127.587 9.98723C127.852 10.1536 127.886 10.4198 127.703 10.686L127.155 11.4847C126.989 11.7343 126.756 11.7842 126.474 11.6178C125.727 11.1519 124.797 10.8857 124.016 10.8857C122.688 10.8857 121.874 11.518 121.874 12.5329C121.874 13.7142 122.854 14.0803 124.465 14.6127C126.308 15.1784 128.5 15.9105 128.5 18.789C128.5 21.3014 126.424 22.832 123.568 22.832C121.991 22.8821 120.347 22.3163 119.201 21.3846Z" fill="#F5F5F7"/>
</g>
<defs>
<clipPath id="clip0_10_255">
<rect width="128" height="32" fill="white" transform="translate(0.5)"/>
</clipPath>
</defs>
</symbol>
</svg>
