<svg xmlns="http://www.w3.org/2000/svg" style="display: none">

    <symbol id="enter-code" fill="none" viewBox="0 0 78 34"  xmlns="http://www.w3.org/2000/svg">
        <path d="M18.802 0H7.492c-3.57 0-6.464 2.9-6.464 6.476v21.048C1.028 31.1 3.922 34 7.491 34h11.311c3.57 0 6.463-2.9 6.463-6.476V6.476C25.265 2.9 22.372 0 18.802 0Z" fill="#E0553F"/>
        <path d="M16.873 19.617h-1.369l-2.353-3.434-2.364 3.434H9.42l2.76-4-2.76-3.99h1.368l2.364 3.411 2.353-3.411h1.369l-2.772 3.99 2.772 4Z" fill="#fff"/>
        <path d="M44.655 0h-11.31c-3.57 0-6.464 2.9-6.464 6.476v21.048c0 3.576 2.894 6.476 6.464 6.476h11.31c3.57 0 6.464-2.9 6.464-6.476V6.476C51.119 2.9 48.225 0 44.655 0Z" fill="#E0553F"/>
        <path d="M38.829 11.502c2.16 0 3.461 1.28 3.461 3.842 0 2.437-.848 4.273-3.868 4.273h-2.206v-1.043h2.285c1.776 0 2.545-1.088 2.692-2.754-.396.907-1.3 1.45-2.624 1.45-1.81 0-2.952-1.167-2.952-2.776 0-1.813 1.21-2.992 3.212-2.992Zm-2.002 2.947c0 1.11.747 1.836 2.025 1.836 1.38 0 2.228-.714 2.228-1.825 0-1.031-.747-1.915-2.206-1.915-1.323 0-2.047.702-2.047 1.904Z" fill="#fff"/>
        <path d="M70.509.404H59.198c-3.346 0-6.06 2.719-6.06 6.072v21.047c0 3.354 2.714 6.072 6.06 6.072h11.31c3.347 0 6.06-2.718 6.06-6.072V6.476c0-3.353-2.713-6.072-6.06-6.072Z" stroke="#B3B3B2" stroke-width=".81"/>
        <g opacity=".4" filter="url(#aa)">
        <path d="M65.257 12.143v9.714" stroke="#F5EDE1" stroke-width=".81"/>
        </g>
        <defs>
        <filter id="aa" x="58.856" y="6.146" width="12.802" height="21.707" filterUnits="userSpaceOnUse" color-interpolation-filters="sRGB">
        <feFlood flood-opacity="0" result="BackgroundImageFix"/>
        <feColorMatrix in="SourceAlpha" values="0 0 0 0 0 0 0 0 0 0 0 0 0 0 0 0 0 0 127 0" result="hardAlpha"/>
        <feOffset/>
        <feGaussianBlur stdDeviation="2.998"/>
        <feComposite in2="hardAlpha" operator="out"/>
        <feColorMatrix values="0 0 0 0 0.87876 0 0 0 0 0.87876 0 0 0 0 0.87876 0 0 0 0.25 0"/>
        <feBlend in2="BackgroundImageFix" result="effect1_dropShadow_2492_1564"/>
        <feBlend in="SourceGraphic" in2="effect1_dropShadow_2492_1564" result="shape"/>
        </filter>
        </defs>
    </symbol>
</svg>

