<svg width="24" height="24" viewBox="0 0 24 24" fill="none" xmlns="http://www.w3.org/2000/svg">
<path d="M4.25977 11.0204V15.9904C4.25977 17.8104 4.25977 17.8104 5.97977 18.9704L10.7098 21.7004C11.4198 22.1104 12.5798 22.1104 13.2898 21.7004L18.0198 18.9704C19.7398 17.8104 19.7398 17.8104 19.7398 15.9904V11.0204C19.7398 9.20043 19.7398 9.20043 18.0198 8.04043L13.2898 5.31043C12.5798 4.90043 11.4198 4.90043 10.7098 5.31043L5.97977 8.04043C4.25977 9.20043 4.25977 9.20043 4.25977 11.0204Z" stroke="#171615" stroke-linecap="round" stroke-linejoin="round"/>
<path d="M17.5 7.63V5C17.5 3 16.5 2 14.5 2H9.5C7.5 2 6.5 3 6.5 5V7.56" stroke="#171615" stroke-linecap="round" stroke-linejoin="round"/>
<path d="M12.63 10.99L13.2 11.88C13.29 12.02 13.49 12.16 13.64 12.2L14.66 12.46C15.29 12.62 15.46 13.16 15.05 13.66L14.38 14.47C14.28 14.6 14.2 14.83 14.21 14.99L14.27 16.04C14.31 16.69 13.85 17.02 13.25 16.78L12.27 16.39C12.12 16.33 11.87 16.33 11.72 16.39L10.74 16.78C10.14 17.02 9.68002 16.68 9.72002 16.04L9.78002 14.99C9.79002 14.83 9.71002 14.59 9.61002 14.47L8.94002 13.66C8.53002 13.16 8.70002 12.62 9.33002 12.46L10.35 12.2C10.51 12.16 10.71 12.01 10.79 11.88L11.36 10.99C11.72 10.45 12.28 10.45 12.63 10.99Z" stroke="#171615" stroke-linecap="round" stroke-linejoin="round"/>
</svg>
