<svg width="18" height="21" viewBox="0 0 18 21" fill="none" xmlns="http://www.w3.org/2000/svg">
<rect x="0.5" y="3.88232" width="13" height="15.7179" rx="1.5" stroke="#868685"/>
<path d="M15.6516 0C16.756 0.000131916 17.6515 0.895582 17.6516 2V14.7178C17.6516 15.7534 16.8643 16.6057 15.8557 16.708L15.6516 16.7178H13.1848C13.2351 16.5423 13.2639 16.3576 13.2639 16.166V15.7178H15.6516C16.2038 15.7176 16.6516 15.27 16.6516 14.7178V2C16.6515 1.44787 16.2037 1.00013 15.6516 1H5.65161C5.09938 1 4.65169 1.44779 4.65161 2V4.20312H3.94946C3.84827 4.20312 3.74877 4.21206 3.65161 4.22656V2C3.65169 0.895501 4.54709 4.83169e-08 5.65161 0H15.6516Z" fill="#868685"/>
</svg>
