<svg width="40" height="40" viewBox="0 0 40 40" fill="none" xmlns="http://www.w3.org/2000/svg">
<rect width="40" height="40" rx="20" fill="#E0E0DF"/>
<path d="M17.082 22.917L17.082 19.417" stroke="#171615" stroke-width="1.5" stroke-linecap="round"/>
<path d="M22.918 22.917L22.918 19.417" stroke="#171615" stroke-width="1.5" stroke-linecap="round"/>
<path d="M9.5 13.583H30.5H29.75C28.1787 13.583 27.393 13.583 26.9048 14.0712C26.4167 14.5593 26.4167 15.345 26.4167 16.9163V25.4163C26.4167 26.9877 26.4167 27.7734 25.9285 28.2615C25.4404 28.7497 24.6547 28.7497 23.0833 28.7497H16.9167C15.3453 28.7497 14.5596 28.7497 14.0715 28.2615C13.5833 27.7734 13.5833 26.9877 13.5833 25.4163V16.9163C13.5833 15.345 13.5833 14.5593 13.0952 14.0712C12.607 13.583 11.8213 13.583 10.25 13.583H9.5Z" stroke="#171615" stroke-width="1.5" stroke-linecap="round"/>
<path d="M17.0846 10.0839C17.0846 10.0839 17.668 8.91699 20.0013 8.91699C22.3346 8.91699 22.918 10.0837 22.918 10.0837" stroke="#171615" stroke-width="1.5" stroke-linecap="round"/>
</svg>
