<svg width="141" height="35" viewBox="0 0 141 35" fill="none" xmlns="http://www.w3.org/2000/svg">
<g clip-path="url(#clip0_433_10260)">
<path d="M29.0524 16.4377C28.7597 14.3813 27.516 12.9437 26.6197 12.0519C25.1197 10.5597 23.6197 9.04921 22.1015 7.53873C20.3454 5.7735 18.5711 4.02647 16.815 2.26123C14.62 0.0774372 11.9311 -0.541308 9.02264 0.477796C6.0593 1.5151 4.19353 3.93547 4.13866 6.82901C4.12036 7.75713 4.10205 8.92181 4.10205 10.1411C4.10205 10.6506 4.35814 10.8872 4.35814 10.8872L6.16906 12.6889C6.38858 12.8709 6.82758 12.7981 6.82758 12.5433C6.82758 10.5597 6.84586 8.35766 6.86414 6.84721C6.90073 5.10018 8.03486 3.6625 9.91896 3.00737C11.8396 2.33403 13.4127 2.69799 14.8761 4.15385C16.6321 5.9191 18.4065 7.66613 20.1625 9.43137C21.6625 10.9418 23.1624 12.4341 24.6807 13.9446C25.6866 14.9455 26.1988 15.8372 26.3452 16.8017C26.5647 18.3303 26.1624 19.5678 25.1379 20.6233C23.6197 22.152 22.0649 23.6988 20.5649 25.173C18.6626 27.0473 16.7053 28.9945 14.8029 30.9417C13.6505 32.1247 11.8945 32.5797 10.2116 32.1066C8.74824 31.7061 7.65073 30.687 7.17515 29.3585C7.01052 28.9218 6.53491 29.0674 6.40684 29.1765L5.08983 30.4869C5.08983 30.4869 4.98009 30.6141 4.96179 30.778C4.9435 30.96 4.96179 31.1056 5.05327 31.2511C5.96787 32.9253 7.52269 34.1629 9.47994 34.7089C10.1567 34.8909 10.8518 35 11.5469 35C13.5042 35 15.3883 34.2355 16.7602 32.8343C18.6443 30.9055 20.6015 28.9583 22.4856 27.0837C23.9856 25.5915 25.5588 24.0446 27.0769 22.4978C28.705 20.8963 29.3818 18.7853 29.0524 16.4377Z" fill="#171615"/>
<path d="M9.53476 22.9527C10.1567 22.3158 10.3945 21.5515 10.2665 20.6597C10.175 19.9864 9.79085 19.4586 9.31524 18.9855C7.81529 17.475 6.31534 15.9828 4.79711 14.4723C3.95566 13.6352 2.98619 13.3986 1.85208 13.799C0.754557 14.1811 0.0411662 15.0547 0.022874 16.1466C-0.0137101 17.7662 0.0045641 21.0237 0.0045641 21.0237C0.0045641 22.3886 0.0045641 23.7535 0.0045641 25.1184C0.0045641 25.5551 0.0045641 26.0101 0.0960247 26.4286C0.571619 28.5214 3.27886 29.1948 4.74222 27.7024C6.35193 26.1192 7.96164 24.5541 9.53476 22.9527Z" fill="#171615"/>
<path d="M40.1373 24.809C39.7714 24.809 39.5886 24.6089 39.5886 24.263V10.5961C39.5886 10.2321 39.7899 10.0501 40.1373 10.0501H43.8689C48.2407 10.0501 50.5273 12.5797 50.5273 17.4386C50.5273 22.2976 48.2407 24.8271 43.8689 24.8271H40.1373V24.809ZM47.6555 17.4204C47.6555 13.9446 46.4665 12.2885 44.1067 12.2885H42.3141V22.5888H44.1067C46.4665 22.5888 47.6555 20.9145 47.6555 17.4204Z" fill="#171615"/>
<path d="M63.8806 10.5961V20.0046C63.8806 23.1893 61.8684 25.1911 58.4662 25.1911C55.0454 25.1911 53.0518 23.1893 53.0518 20.0046V10.5961C53.0518 10.2321 53.2528 10.0501 53.6004 10.0501H55.2285C55.5944 10.0501 55.7772 10.2503 55.7772 10.5961V19.95C55.7772 21.8972 56.71 22.9709 58.4662 22.9709C60.2221 22.9709 61.1366 21.9154 61.1366 19.95V10.5961C61.1366 10.2321 61.3562 10.0501 61.7038 10.0501H63.2952C63.661 10.0319 63.8806 10.2321 63.8806 10.5961Z" fill="#171615"/>
<path d="M67.1914 24.354V10.6871C67.1914 10.3231 67.3927 10.1411 67.7403 10.1411H70.0634C70.3744 10.1411 70.5389 10.3049 70.7035 10.6143L74.3253 17.1111L77.8374 10.6143C78.0569 10.2503 78.1301 10.1411 78.4595 10.1411H80.7826C81.1482 10.1411 81.3677 10.3413 81.3677 10.6871V24.354C81.3677 24.718 81.1482 24.9 80.7826 24.9H79.3191C78.9715 24.9 78.7704 24.6999 78.7704 24.354V18.7307C78.8251 16.9837 78.8618 13.7444 78.8618 13.7444L75.807 19.2221C75.6242 19.5314 75.5143 19.6952 75.1851 19.6952H73.5206C73.1912 19.6952 73.0633 19.5314 72.8985 19.2221L69.7158 13.4896C69.7158 13.4896 69.8072 16.9837 69.8072 18.7307V24.354C69.8072 24.718 69.6062 24.9 69.2585 24.9H67.795C67.3927 24.9 67.1914 24.6999 67.1914 24.354Z" fill="#171615"/>
<path d="M84.8616 24.263V10.5961C84.8616 10.2321 85.0629 10.0501 85.4103 10.0501H88.9591C92.8918 10.0501 95.1052 11.7608 95.1052 14.7817C95.1052 17.8754 92.8918 19.677 88.9773 19.677H87.587V24.263C87.587 24.627 87.386 24.809 87.0383 24.809H85.4103C85.0629 24.809 84.8616 24.627 84.8616 24.263ZM89.2151 17.6206C91.3004 17.6206 92.3064 16.6743 92.3064 14.7999C92.3064 13.0529 91.3004 12.1065 89.3614 12.1065H87.587V17.6206H89.2151Z" fill="#171615"/>
<path d="M97.9588 24.809C97.593 24.809 97.4099 24.6089 97.4099 24.263V10.5961C97.4099 10.2321 97.6112 10.0501 97.9588 10.0501H101.69C106.062 10.0501 108.349 12.5797 108.349 17.4386C108.349 22.2976 106.062 24.8271 101.69 24.8271H97.9588V24.809ZM105.477 17.4204C105.477 13.9446 104.288 12.2885 101.928 12.2885H100.136V22.5888H101.928C104.288 22.5888 105.477 20.9145 105.477 17.4204Z" fill="#171615"/>
<path d="M108.66 24.1903L112.885 10.5051C112.977 10.1957 113.196 10.0319 113.525 10.0319H115.976C116.287 10.0319 116.525 10.1775 116.617 10.5051L120.842 24.1903C120.952 24.5724 120.751 24.809 120.367 24.809H118.665C118.354 24.809 118.117 24.6815 118.044 24.3359L117.22 21.3695H112.245L111.422 24.3359C111.33 24.6815 111.129 24.809 110.8 24.809H109.135C108.733 24.809 108.532 24.5724 108.66 24.1903ZM116.69 19.313L114.751 12.1611H114.714L112.775 19.313H116.69Z" fill="#171615"/>
<path d="M123.403 24.263V19.2585L118.995 10.7053C118.793 10.3049 118.958 10.0501 119.379 10.0501H121.135C121.464 10.0501 121.665 10.1957 121.793 10.4505L124.775 16.8563L127.83 10.4505C127.958 10.1957 128.177 10.0501 128.47 10.0501L130.171 10.0501C130.592 10.0501 130.775 10.3049 130.574 10.7053L126.129 19.2585V24.263C126.129 24.627 125.909 24.809 125.58 24.809H123.952C123.586 24.809 123.403 24.627 123.403 24.263Z" fill="#171615"/>
<path d="M130.756 23.3895C130.5 23.1893 130.482 22.9163 130.665 22.6434L131.287 21.7153C131.488 21.4241 131.744 21.3877 132.037 21.6243C133.006 22.3522 134.36 22.8435 135.457 22.8435C137.177 22.8435 138.165 22.0792 138.201 20.8417C138.22 19.1493 137.012 18.7671 135.073 18.1484C133.116 17.4932 130.939 16.6379 130.939 13.9446C130.939 11.415 132.897 9.75894 135.933 9.75894C137.36 9.75894 138.915 10.2139 139.994 10.9236C140.286 11.1056 140.323 11.3968 140.122 11.688L139.518 12.5615C139.335 12.8345 139.079 12.8891 138.768 12.7071C137.945 12.1975 136.921 11.9063 136.061 11.9063C134.598 11.9063 133.701 12.5979 133.701 13.708C133.701 15.0001 134.781 15.4004 136.555 15.9828C138.585 16.6015 141 17.4022 141 20.5506C141 23.2985 138.713 24.9726 135.567 24.9726C133.829 25.0274 132.018 24.4085 130.756 23.3895Z" fill="#171615"/>
</g>
<defs>
<clipPath id="clip0_433_10260">
<rect width="141" height="35" fill="white"/>
</clipPath>
</defs>
</svg>
