<svg width="22" height="20" viewBox="0 0 22 20" fill="none" xmlns="http://www.w3.org/2000/svg">
<path d="M17.265 6.90668C18.4943 7.79717 19.6089 8.83615 20.5833 10C20.5833 10 16.2933 15.4167 11 15.4167C10.1521 15.412 9.30966 15.2817 8.5 15.03" stroke="#171615" stroke-linecap="round" stroke-linejoin="round"/>
<path d="M4.72329 13.0833C3.49865 12.1952 2.38806 11.1597 1.41663 10C1.41663 10 5.70663 4.58334 11 4.58334C11.703 4.58631 12.4029 4.6773 13.0833 4.85418" stroke="#171615" stroke-linecap="round" stroke-linejoin="round"/>
<path d="M7.66663 9.99999C7.66663 8.15904 9.15901 6.66666 11 6.66666" stroke="#171615" stroke-linecap="round" stroke-linejoin="round"/>
<path d="M14.3333 10C14.3333 11.8409 12.8409 13.3333 11 13.3333" stroke="#171615" stroke-linecap="round" stroke-linejoin="round"/>
<path d="M19.125 1.875L2.875 18.125" stroke="#171615" stroke-linecap="round" stroke-linejoin="round"/>
</svg>
