<svg width="20" height="20" viewBox="0 0 20 20" fill="none" xmlns="http://www.w3.org/2000/svg">
<path fill-rule="evenodd" clip-rule="evenodd" d="M9.99998 4.37582C6.64081 4.31916 3.16664 6.66666 0.982478 9.07082C0.507631 9.59799 0.507631 10.3987 0.982478 10.9258C3.11914 13.2792 6.58331 15.6808 9.99998 15.6233C13.4166 15.6808 16.8816 13.2792 19.02 10.9258C19.4948 10.3987 19.4948 9.59799 19.02 9.07082C16.8333 6.66666 13.3591 4.31916 9.99998 4.37582Z" stroke="black" stroke-linecap="round" stroke-linejoin="round"/>
<path fill-rule="evenodd" clip-rule="evenodd" d="M13.125 9.99998C13.1245 11.7258 11.7252 13.1245 9.99944 13.1241C8.27366 13.1238 6.87485 11.7246 6.875 9.99887C6.87515 8.27309 8.27422 6.87415 10 6.87415C10.829 6.87392 11.6241 7.20321 12.2102 7.78949C12.7964 8.37577 13.1254 9.17097 13.125 9.99998V9.99998Z" stroke="black" stroke-linecap="round" stroke-linejoin="round"/>
</svg>
