<svg width="20" height="20" viewBox="0 0 20 20" fill="none" xmlns="http://www.w3.org/2000/svg">
<g id="Group">
<path id="Vector" d="M10.2041 8.18164V12.0544H15.6958C15.4546 13.2998 14.731 14.3544 13.6457 15.0635L16.9574 17.5817C18.8869 15.8363 20.0001 13.2726 20.0001 10.2272C20.0001 9.51811 19.9352 8.83623 19.8145 8.18175L10.2041 8.18164Z" fill="#4285F4"/>
<path id="Vector_2" d="M4.48538 11.9043L3.73846 12.4646L1.0946 14.4828C2.77365 17.7464 6.21499 20.0009 10.2039 20.0009C12.9589 20.0009 15.2688 19.11 16.9571 17.5828L13.6454 15.0646C12.7363 15.6646 11.5767 16.0283 10.2039 16.0283C7.5508 16.0283 5.29667 14.2737 4.48955 11.9101L4.48538 11.9043Z" fill="#34A853"/>
<path id="Vector_3" d="M1.09455 5.51758C0.398849 6.86298 0 8.38118 0 9.99933C0 11.6175 0.398849 13.1357 1.09455 14.4811C1.09455 14.4901 4.48982 11.8993 4.48982 11.8993C4.28574 11.2993 4.16511 10.6629 4.16511 9.99922C4.16511 9.3355 4.28574 8.69918 4.48982 8.09918L1.09455 5.51758Z" fill="#FBBC05"/>
<path id="Vector_4" d="M10.2041 3.98181C11.7069 3.98181 13.0427 4.49089 14.1095 5.47272L17.0316 2.60912C15.2598 0.990969 12.9593 0 10.2041 0C6.2152 0 2.77365 2.24545 1.0946 5.51818L4.48977 8.1C5.29678 5.73634 7.55101 3.98181 10.2041 3.98181Z" fill="#EA4335"/>
</g>
</svg>
