<svg width="33" height="32" viewBox="0 0 33 32" fill="none" xmlns="http://www.w3.org/2000/svg">
<path fill-rule="evenodd" clip-rule="evenodd" d="M16.5001 1.33337C14.0247 1.33337 11.6507 2.3167 9.9004 4.06704C8.15006 5.81738 7.16673 8.19135 7.16673 10.6667C7.16673 15.1369 6.21064 17.9129 5.32954 19.5282C4.88714 20.3393 4.45636 20.8714 4.15713 21.1872C4.00716 21.3455 3.88931 21.4505 3.81836 21.5096C3.78286 21.5392 3.75906 21.5573 3.74879 21.565L3.74498 21.5678C3.267 21.8961 3.05548 22.4967 3.22394 23.0531C3.3942 23.6154 3.91251 24 4.50006 24H28.5001C29.0876 24 29.6059 23.6154 29.7762 23.0531C29.9446 22.4967 29.7331 21.8961 29.2551 21.5678L29.2513 21.565C29.2411 21.5573 29.2173 21.5392 29.1818 21.5096C29.1108 21.4505 28.993 21.3455 28.843 21.1872C28.5438 20.8714 28.113 20.3393 27.6706 19.5282C26.7895 17.9129 25.8334 15.1369 25.8334 10.6667C25.8334 8.19135 24.8501 5.81738 23.0997 4.06704C21.3494 2.3167 18.9754 1.33337 16.5001 1.33337ZM25.3295 20.8052C25.431 20.9912 25.5329 21.1671 25.6343 21.3334H7.36583C7.46728 21.1671 7.56913 20.9912 7.67059 20.8052C8.78949 18.7539 9.8334 15.5298 9.8334 10.6667C9.8334 8.8986 10.5358 7.2029 11.786 5.95266C13.0363 4.70242 14.732 4.00004 16.5001 4.00004C18.2682 4.00004 19.9639 4.70242 21.2141 5.95266C22.4644 7.2029 23.1667 8.8986 23.1667 10.6667C23.1667 15.5298 24.2106 18.7539 25.3295 20.8052Z" fill="#868685"/>
<path d="M15.3468 27.331C14.9773 26.694 14.1614 26.4772 13.5244 26.8467C12.8874 27.2162 12.6706 28.0321 13.0401 28.6691C13.3917 29.2752 13.8964 29.7784 14.5036 30.1281C15.1109 30.4779 15.7993 30.662 16.5001 30.662C17.2008 30.662 17.8893 30.4779 18.4965 30.1281C19.1038 29.7784 19.6085 29.2752 19.9601 28.6691C20.3296 28.0321 20.1128 27.2162 19.4758 26.8467C18.8388 26.4772 18.0229 26.694 17.6534 27.331C17.5362 27.5331 17.368 27.7008 17.1656 27.8174C16.9632 27.9339 16.7337 27.9953 16.5001 27.9953C16.2665 27.9953 16.037 27.9339 15.8346 27.8174C15.6322 27.7008 15.464 27.5331 15.3468 27.331Z" fill="#868685"/>
</svg>
