<svg width="12" height="13" viewBox="0 0 12 13" fill="none" xmlns="http://www.w3.org/2000/svg">
<path id="Shape" fill-rule="evenodd" clip-rule="evenodd" d="M5.61124 1.14678C5.68414 0.988334 5.83668 0.887695 6.00393 0.887695C6.17118 0.887695 6.32371 0.988334 6.39662 1.14678L8.01013 4.58041L11.6263 5.13156C11.791 5.15671 11.9277 5.27821 11.9788 5.44484C12.03 5.61146 11.9867 5.7942 11.8672 5.91602L9.24928 8.57988L9.8671 12.346C9.89519 12.5181 9.82818 12.692 9.69418 12.7949C9.56018 12.8978 9.38236 12.9118 9.23531 12.831L6.00305 11.0545L2.76469 12.8356C2.61764 12.9164 2.43982 12.9024 2.30582 12.7995C2.17182 12.6966 2.10481 12.5227 2.13289 12.3506L2.75072 8.58447L0.132803 5.92061C0.0133012 5.7988 -0.0300001 5.61605 0.0211568 5.44943C0.0723137 5.28281 0.209026 5.1613 0.373652 5.13615L3.99075 4.585L5.61124 1.14678Z" fill="#868685"/>
</svg>
