<svg width="18" height="18" viewBox="0 0 18 18" fill="none" xmlns="http://www.w3.org/2000/svg">
<path fill-rule="evenodd" clip-rule="evenodd" d="M8.48165 1.34545C8.57886 1.13419 8.78223 1 9.00524 1C9.22824 1 9.43162 1.13419 9.52882 1.34545L11.6802 5.92362L16.5018 6.65848C16.7213 6.69202 16.9036 6.85403 16.9718 7.07619C17.04 7.29835 16.9823 7.54201 16.8229 7.70443L13.3324 11.2562L14.1561 16.2778C14.1936 16.5072 14.1042 16.7391 13.9256 16.8763C13.7469 17.0134 13.5098 17.0321 13.3138 16.9245L9.00407 14.5558L4.68625 16.9306C4.49018 17.0382 4.25309 17.0196 4.07442 16.8824C3.89576 16.7452 3.80641 16.5133 3.84386 16.2839L4.66763 11.2624L1.17707 7.71055C1.01773 7.54813 0.96 7.30448 1.02821 7.08231C1.09642 6.86015 1.2787 6.69815 1.4982 6.6646L6.32099 5.92975L8.48165 1.34545Z" fill="#E0553F"/>
<path d="M16.5334 6.45145L16.5334 6.45144L11.8222 5.73342L9.71908 1.25791C9.71896 1.25764 9.71883 1.25737 9.7187 1.25709C9.58904 0.976083 9.31413 0.790566 9.00524 0.790566C8.6964 0.790566 8.42153 0.976014 8.29184 1.25694L6.17912 5.73951L1.46665 6.45756L1.46657 6.45757C1.16299 6.50396 0.918405 6.72639 0.827999 7.02084C0.73785 7.31447 0.813014 7.63851 1.02757 7.85722L1.0277 7.85735L4.44375 11.3334L3.63719 16.25L3.63716 16.2502C3.58778 16.5526 3.70464 16.8626 3.94689 17.0485C4.19086 17.2358 4.51747 17.2622 4.78704 17.1142L4.78718 17.1141L9.00411 14.7948L13.2129 17.108L13.213 17.108C13.4825 17.256 13.8091 17.2297 14.0531 17.0424C14.2954 16.8564 14.4122 16.5465 14.3628 16.244L14.3628 16.2439L13.5562 11.3272L16.9723 7.85123L16.9724 7.8511C17.187 7.63239 17.2621 7.30834 17.172 7.01472C17.0816 6.72026 16.837 6.49784 16.5334 6.45145Z" stroke="#F5F5F7" stroke-opacity="0.2" stroke-width="0.418867" stroke-linecap="round" stroke-linejoin="round"/>
</svg>
