<svg width="24" height="22" viewBox="0 0 24 22" fill="none" xmlns="http://www.w3.org/2000/svg">
<path fill-rule="evenodd" clip-rule="evenodd" d="M11.2225 0.474995C11.3683 0.184504 11.6734 0 12.0079 0C12.3424 0 12.6474 0.184504 12.7932 0.474995L16.0203 6.76998L23.2527 7.78041C23.5819 7.82653 23.8554 8.04929 23.9577 8.35476C24.06 8.66023 23.9734 8.99526 23.7344 9.21859L18.4986 14.1023L19.7342 21.007C19.7904 21.3224 19.6564 21.6413 19.3884 21.8299C19.1204 22.0185 18.7647 22.0441 18.4706 21.8961L12.0061 18.6392L5.52937 21.9046C5.23527 22.0526 4.87964 22.0269 4.61164 21.8383C4.34364 21.6497 4.20962 21.3308 4.26579 21.0154L5.50145 14.1108L0.265607 9.22701C0.0266024 9.00368 -0.0600002 8.66865 0.0423136 8.36318C0.144627 8.05771 0.418053 7.83495 0.747304 7.78883L7.98149 6.7784L11.2225 0.474995Z" fill="#E0553F"/>
</svg>
