<svg width="30" height="28" viewBox="0 0 30 28" fill="none" xmlns="http://www.w3.org/2000/svg">
<g id="Group">
<g id="rating-star-1">
<path id="Shape" fill-rule="evenodd" clip-rule="evenodd" d="M14.1021 1.48989C14.2692 1.1449 14.6187 0.925781 15.0021 0.925781C15.3854 0.925781 15.735 1.1449 15.9021 1.48989L19.6001 8.96589L27.8881 10.1659C28.2654 10.2207 28.5787 10.4852 28.6959 10.848C28.8132 11.2108 28.714 11.6087 28.4401 11.8739L22.4401 17.6739L23.8561 25.8739C23.9204 26.2485 23.7669 26.6272 23.4597 26.8512C23.1526 27.0752 22.7451 27.1057 22.4081 26.9299L15.0001 23.0619L7.57807 26.9399C7.24105 27.1157 6.83351 27.0852 6.52639 26.8612C6.21928 26.6372 6.0657 26.2585 6.13007 25.8839L7.54607 17.6839L1.54607 11.8839C1.27218 11.6187 1.17294 11.2208 1.29019 10.858C1.40743 10.4952 1.72077 10.2307 2.09807 10.1759L10.3881 8.97589L14.1021 1.48989Z" fill="#E0553F" stroke="#E0553F" stroke-linecap="round" stroke-linejoin="round"/>
</g>
</g>
</svg>
