<svg width="20" height="20" viewBox="0 0 20 20" fill="none" xmlns="http://www.w3.org/2000/svg">
<path d="M9.53107 1.26725C9.69215 0.831944 10.3078 0.831944 10.4689 1.26725L12.6211 7.08347C12.6718 7.22033 12.7797 7.32824 12.9165 7.37888L18.7327 9.53107C19.1681 9.69215 19.1681 10.3078 18.7327 10.4689L12.9165 12.6211C12.7797 12.6718 12.6718 12.7797 12.6211 12.9165L10.4689 18.7327C10.3078 19.1681 9.69215 19.1681 9.53107 18.7327L7.37888 12.9165C7.32824 12.7797 7.22033 12.6718 7.08347 12.6211L1.26725 10.4689C0.831944 10.3078 0.831944 9.69215 1.26725 9.53107L7.08347 7.37888C7.22033 7.32824 7.32824 7.22033 7.37888 7.08347L9.53107 1.26725Z" fill="#F5F5F5"/>
</svg>
