<svg width="15" height="14" viewBox="0 0 15 14" fill="none" xmlns="http://www.w3.org/2000/svg">
<path fill-rule="evenodd" clip-rule="evenodd" d="M7.01405 1.26054C7.09122 1.1012 7.25268 1 7.42972 1C7.60676 1 7.76823 1.1012 7.8454 1.26054L9.55336 4.71341L13.3813 5.26765C13.5555 5.29294 13.7002 5.41513 13.7544 5.58268C13.8085 5.75024 13.7627 5.93401 13.6362 6.05651L10.865 8.7353L11.519 12.5226C11.5488 12.6956 11.4778 12.8705 11.336 12.9739C11.1941 13.0774 11.0059 13.0915 10.8503 13.0103L7.4288 11.2238L4.00086 13.0149C3.84521 13.0961 3.65698 13.082 3.51514 12.9786C3.37329 12.8751 3.30236 12.7002 3.33209 12.5272L3.98608 8.73992L1.21492 6.06112C1.08842 5.93863 1.04258 5.75486 1.09674 5.5873C1.15089 5.41975 1.2956 5.29756 1.46987 5.27227L5.29869 4.71803L7.01405 1.26054Z" fill="white" stroke="url(#paint0_linear_2555_7180)" stroke-width="0.554233" stroke-linecap="round" stroke-linejoin="round"/>
<defs>
<linearGradient id="paint0_linear_2555_7180" x1="-6.62443" y1="4.11738" x2="6.63895" y2="-10.0331" gradientUnits="userSpaceOnUse">
<stop offset="0.895833" stop-color="white"/>
</linearGradient>
</defs>
</svg>
