<svg width="24" height="24" viewBox="0 0 24 24" fill="none" xmlns="http://www.w3.org/2000/svg">
<path fill-rule="evenodd" clip-rule="evenodd" d="M19.5 13C19.4991 11.1697 20.8194 9.60595 22.624 9.3C22.9853 9.23985 23.2501 8.92726 23.25 8.561V6.25C23.25 5.42157 22.5784 4.75 21.75 4.75H2.25C1.42157 4.75 0.75 5.42157 0.75 6.25V8.563C0.749918 8.92926 1.01472 9.24185 1.376 9.302C3.18479 9.60335 4.51056 11.1683 4.51056 13.002C4.51056 14.8357 3.18479 16.4006 1.376 16.702C1.01493 16.7625 0.750331 17.0749 0.75 17.441V19.75C0.75 20.5784 1.42157 21.25 2.25 21.25H21.75C22.5784 21.25 23.25 20.5784 23.25 19.75V17.437C23.2501 17.0707 22.9853 16.7581 22.624 16.698C20.8202 16.3922 19.5001 14.8296 19.5 13V13Z" stroke="#171615" stroke-linecap="round" stroke-linejoin="round"/>
<path d="M12 10H17.25" stroke="#171615" stroke-linecap="round" stroke-linejoin="round"/>
<circle cx="15.375" cy="15.625" r="1.875" stroke="#171615" stroke-linecap="round" stroke-linejoin="round"/>
<path d="M7.5 8.875C7.5 8.66789 7.66789 8.5 7.875 8.5C8.08211 8.5 8.25 8.66789 8.25 8.875C8.25 9.08211 8.08211 9.25 7.875 9.25C7.66789 9.25 7.5 9.08211 7.5 8.875" stroke="#171615" stroke-linecap="round" stroke-linejoin="round"/>
<path d="M7.5 13.375C7.5 13.1679 7.66789 13 7.875 13C8.08211 13 8.25 13.1679 8.25 13.375C8.25 13.5821 8.08211 13.75 7.875 13.75C7.66789 13.75 7.5 13.5821 7.5 13.375" stroke="#171615" stroke-linecap="round" stroke-linejoin="round"/>
<path d="M7.5 17.875C7.5 17.6679 7.66789 17.5 7.875 17.5C8.08211 17.5 8.25 17.6679 8.25 17.875C8.25 18.0821 8.08211 18.25 7.875 18.25C7.66789 18.25 7.5 18.0821 7.5 17.875" stroke="#171615" stroke-linecap="round" stroke-linejoin="round"/>
</svg>
