<svg width="437" height="593" viewBox="0 0 437 593" fill="none" xmlns="http://www.w3.org/2000/svg">
<path d="M15.609 592.5L0.000976562 592.5L0.000976551 578.07C0.208853 578.07 0.416731 578.105 0.624607 578.105C9.23416 578.105 16.2154 571.124 16.2154 562.514C16.2154 553.905 9.23416 546.923 0.624607 546.923C0.416731 546.923 0.208853 546.941 0.000976527 546.958L0.000976517 533.827C8.61053 533.827 15.5917 526.846 15.5917 518.236C15.5917 509.627 8.61053 502.646 0.000976493 502.646L0.000976482 489.549C8.61053 489.549 15.5917 482.568 15.5917 473.959C15.5917 465.349 8.61053 458.368 0.000976458 458.368L0.000976448 445.272C8.61053 445.272 15.5917 438.291 15.5917 429.681C15.5917 421.071 8.61053 414.09 0.000976424 414.09L0.000976414 400.994C8.61053 400.994 15.5917 394.013 15.5917 385.403C15.5917 376.794 8.61053 369.812 0.00097639 369.812L0.00097638 356.716C8.61053 356.716 15.5917 349.735 15.5917 341.126C15.5917 332.516 8.61053 325.535 0.000976355 325.535L0.000976345 312.439C8.61053 312.439 15.5917 305.457 15.5917 296.848C15.5917 288.238 8.61053 281.257 0.000976321 281.257L0.000976311 268.161C8.61053 268.161 15.5917 261.18 15.5917 252.57C15.5917 243.961 8.61053 236.979 0.000976287 236.979L0.000976277 223.883C8.61053 223.883 15.5917 216.902 15.5917 208.292C15.5917 199.683 8.61053 192.702 0.000976253 192.702L0.000976243 179.605C8.61053 179.605 15.5917 172.624 15.5917 164.015C15.5917 155.405 8.61053 148.424 0.000976218 148.424L0.000976208 135.328C8.61053 135.328 15.5917 128.346 15.5917 119.737C15.5917 111.127 8.61053 104.146 0.000976184 104.146L0.000976174 91.0499C8.61053 91.0499 15.5917 84.0688 15.5917 75.4592C15.5917 66.8497 8.61053 59.8685 0.00097615 59.8685L0.00097614 46.7723C8.61053 46.7723 15.5917 39.791 15.5917 31.1815C15.5917 22.5719 8.61053 15.5908 0.000976116 15.5908L0.000976103 0L15.609 -1.20835e-08C15.609 0.103943 15.609 0.207825 15.609 0.311768C15.609 8.92133 22.5902 15.9026 31.1998 15.9026C39.8093 15.9026 46.7905 8.92133 46.7905 0.311768C46.7905 0.207825 46.7905 0.103943 46.7905 -3.62238e-08L62.3813 -4.82939e-08C62.3813 0.103943 62.3813 0.207825 62.3813 0.311768C62.3813 8.92133 69.3625 15.9026 77.972 15.9026C86.5816 15.9026 93.5628 8.92133 93.5628 0.311768C93.5628 0.207825 93.5628 0.103943 93.5628 -7.24342e-08L109.154 -8.45043e-08C109.154 0.103943 109.154 0.207825 109.154 0.311767C109.154 8.92133 116.135 15.9026 124.744 15.9026C133.354 15.9026 140.335 8.92133 140.335 0.311767C140.335 0.207825 140.335 0.103943 140.335 -1.08645e-07L155.926 -1.20715e-07C155.926 0.103943 155.926 0.207825 155.926 0.311767C155.926 8.92133 162.907 15.9026 171.516 15.9026C180.126 15.9026 187.107 8.92133 187.107 0.311767C187.107 0.207825 187.107 0.103943 187.107 -1.44855e-07L202.698 -1.56925e-07C202.698 0.103943 202.698 0.207825 202.698 0.311767C202.698 8.92133 209.679 15.9026 218.289 15.9026C226.898 15.9026 233.879 8.92133 233.879 0.311767C233.879 0.207825 233.879 0.103943 233.879 -1.81066e-07L249.47 -1.93136e-07C249.47 0.103943 249.47 0.207825 249.47 0.311767C249.47 8.92133 256.451 15.9026 265.061 15.9026C273.671 15.9026 280.652 8.92133 280.652 0.311767C280.652 0.207824 280.652 0.103943 280.652 -2.17276e-07L296.242 -2.29346e-07C296.242 0.103943 296.242 0.207824 296.242 0.311767C296.242 8.92133 303.224 15.9026 311.833 15.9026C320.443 15.9026 327.424 8.92133 327.424 0.311767C327.424 0.207824 327.424 0.103943 327.424 -2.53486e-07L343.015 -2.65556e-07C343.015 0.103943 343.015 0.207824 343.015 0.311767C343.015 8.92133 349.996 15.9026 358.605 15.9026C367.215 15.9026 374.196 8.92133 374.196 0.311767C374.196 0.207824 374.196 0.103943 374.196 -2.89697e-07L389.787 -3.01767e-07C389.96 8.47101 396.855 15.2789 405.36 15.2789C413.866 15.2789 420.76 8.47101 420.934 -3.2588e-07L436.854 -3.38205e-07L436.854 15.6081C436.75 15.6081 436.646 15.6081 436.542 15.6081C427.932 15.6081 420.951 22.5892 420.951 31.1988C420.951 39.8083 427.932 46.7896 436.542 46.7896C436.646 46.7896 436.75 46.7896 436.854 46.7896L436.854 59.9205C436.75 59.9205 436.646 59.9205 436.542 59.9205C427.932 59.9205 420.951 66.9016 420.951 75.5112C420.951 84.1207 427.932 91.1019 436.542 91.1019C436.646 91.1019 436.75 91.1019 436.854 91.1019L436.854 104.233C436.75 104.233 436.646 104.233 436.542 104.233C427.932 104.233 420.951 111.214 420.951 119.824C420.951 128.433 427.932 135.414 436.542 135.414C436.646 135.414 436.75 135.414 436.854 135.414L436.854 148.545C436.75 148.545 436.646 148.545 436.542 148.545C427.932 148.545 420.951 155.526 420.951 164.136C420.951 172.745 427.932 179.727 436.542 179.727C436.646 179.727 436.75 179.727 436.854 179.727L436.854 192.857C436.75 192.857 436.646 192.857 436.542 192.857C427.932 192.857 420.951 199.839 420.951 208.448C420.951 217.058 427.932 224.039 436.542 224.039C436.646 224.039 436.75 224.039 436.854 224.039L436.854 237.17C436.75 237.17 436.646 237.17 436.542 237.17C427.932 237.17 420.951 244.151 420.951 252.761C420.951 261.37 427.932 268.351 436.542 268.351C436.646 268.351 436.75 268.351 436.854 268.351L436.854 281.482C436.75 281.482 436.646 281.482 436.542 281.482C427.932 281.482 420.951 288.463 420.951 297.073C420.951 305.683 427.932 312.664 436.542 312.664C436.646 312.664 436.75 312.664 436.854 312.664L436.854 325.795C436.75 325.795 436.646 325.795 436.542 325.795C427.932 325.795 420.951 332.776 420.951 341.385C420.951 349.995 427.932 356.976 436.542 356.976C436.646 356.976 436.75 356.976 436.854 356.976L436.854 370.107C436.75 370.107 436.646 370.107 436.542 370.107C427.932 370.107 420.951 377.088 420.951 385.698C420.951 394.307 427.932 401.288 436.542 401.288C436.646 401.288 436.75 401.288 436.854 401.288L436.854 414.419C436.75 414.419 436.646 414.419 436.542 414.419C427.932 414.419 420.951 421.401 420.951 430.01C420.951 438.62 427.932 445.601 436.542 445.601C436.646 445.601 436.75 445.601 436.854 445.601L436.854 458.732C436.75 458.732 436.646 458.732 436.542 458.732C427.932 458.732 420.951 465.713 420.951 474.322C420.951 482.932 427.932 489.913 436.542 489.913C436.646 489.913 436.75 489.913 436.854 489.913L436.854 503.044C436.75 503.044 436.646 503.044 436.542 503.044C427.932 503.044 420.951 510.025 420.951 518.635C420.951 527.244 427.932 534.225 436.542 534.225C436.646 534.225 436.75 534.225 436.854 534.225L436.854 547.356C428.383 547.53 421.575 554.424 421.575 562.93C421.575 571.435 428.383 578.33 436.854 578.503L436.854 592.916L420.934 592.916C420.934 592.812 420.934 592.708 420.934 592.604C420.934 583.995 413.953 577.013 405.343 577.013C396.733 577.013 389.752 583.995 389.752 592.604C389.752 592.708 389.752 592.812 389.752 592.916L374.161 592.916C373.988 584.445 367.094 577.637 358.588 577.637C350.082 577.637 343.188 584.445 343.015 592.916L327.424 592.916C327.251 584.445 320.356 577.637 311.85 577.637C303.345 577.637 296.45 584.445 296.277 592.916L280.686 592.916C280.513 584.445 273.618 577.637 265.113 577.637C256.607 577.637 249.713 584.445 249.539 592.916L233.949 592.916C233.776 584.445 226.881 577.637 218.375 577.637C209.87 577.637 202.975 584.445 202.802 592.916L187.211 592.916C187.038 584.445 180.143 577.637 171.638 577.637C163.132 577.637 156.238 584.445 156.064 592.916L140.474 592.916C140.3 584.445 133.406 577.637 124.9 577.637C116.395 577.637 109.5 584.445 109.327 592.916L93.736 592.916C93.5628 584.445 86.6682 577.637 78.1626 577.637C69.657 577.637 62.7624 584.445 62.5891 592.916L46.9984 592.916C46.8252 584.445 39.9306 577.637 31.425 577.637C22.9194 577.637 16.0248 584.445 15.8516 592.916L15.609 592.5Z" fill="white"/>
<path fill-rule="evenodd" clip-rule="evenodd" d="M405.343 562.672L29.7646 562.672L29.7646 30.0483L405.36 31.2335L405.343 562.672Z" fill="white"/>
</svg>
