<svg width="142" height="19" viewBox="0 0 142 19" fill="none" xmlns="http://www.w3.org/2000/svg">
<path d="M0 0.283496H6.05651C7.82622 0.283496 9.38974 0.515447 10.7471 0.979351C12.1216 1.44325 13.247 2.34529 14.1233 3.68545C14.9995 5.02562 15.4377 6.91559 15.4377 9.35538C15.4377 11.8123 14.9995 13.7109 14.1233 15.0511C13.247 16.3912 12.1216 17.2933 10.7471 17.7572C9.38974 18.2211 7.82622 18.453 6.05651 18.453H0V0.283496ZM6.05651 16.0562C7.39668 16.0562 8.52207 15.9187 9.4327 15.6438C10.3605 15.3689 11.1337 14.7418 11.7522 13.7625C12.3707 12.7831 12.68 11.3141 12.68 9.35538C12.68 7.41386 12.3707 5.95342 11.7522 4.97407C11.1337 3.99472 10.3605 3.36759 9.4327 3.09269C8.50489 2.8006 7.37949 2.65456 6.05651 2.65456H2.75765V16.0562H6.05651Z" fill="#171615"/>
<path d="M17.1046 0.283496H19.8623V10.9017C19.8623 12.156 19.9997 13.1783 20.2746 13.9686C20.5495 14.7418 21.0306 15.3346 21.7179 15.7469C22.4051 16.1421 23.3673 16.3397 24.6044 16.3397C25.8415 16.3397 26.8036 16.1421 27.4909 15.7469C28.1953 15.3346 28.685 14.7332 28.9599 13.9429C29.252 13.1525 29.398 12.1388 29.398 10.9017V0.283496H32.1557V11.7007C32.1557 14.003 31.5286 15.7555 30.2743 16.9582C29.02 18.1438 27.1301 18.7365 24.6044 18.7365C22.0959 18.7365 20.2145 18.1438 18.9602 16.9582C17.7232 15.7555 17.1046 14.003 17.1046 11.7007V0.283496Z" fill="#171615"/>
<path d="M34.4827 0.283496H39.6629L44.6627 17.4737L49.6626 0.283496H54.7398V18.453H51.9821V1.36594L46.8534 18.453H42.3948L37.2403 1.36594V18.453H34.4827V0.283496Z" fill="#171615"/>
<path d="M57.2862 0.283496H62.9303C65.5248 0.283496 67.4491 0.747399 68.7034 1.67521C69.9748 2.58583 70.6105 4.15795 70.6105 6.39155C70.6105 8.62516 69.9748 10.2059 68.7034 11.1337C67.4491 12.0615 65.5248 12.5254 62.9303 12.5254H60.0438V18.453H57.2862V0.283496ZM63.0334 10.1543C64.6485 10.1543 65.8512 9.8966 66.6416 9.38115C67.4491 8.84852 67.8529 7.85199 67.8529 6.39155C67.8529 4.93112 67.4491 3.94318 66.6416 3.42773C65.834 2.91228 64.6313 2.65456 63.0334 2.65456H60.0438V10.1543H63.0334Z" fill="#171615"/>
<path d="M79.6125 0.283496H85.669C87.4387 0.283496 89.0023 0.515447 90.3596 0.979351C91.7341 1.44325 92.8595 2.34529 93.7358 3.68545C94.6121 5.02562 95.0502 6.91559 95.0502 9.35538C95.0502 11.8123 94.6121 13.7109 93.7358 15.0511C92.8595 16.3912 91.7341 17.2933 90.3596 17.7572C89.0023 18.2211 87.4387 18.453 85.669 18.453H79.6125V0.283496ZM85.669 16.0562C87.0092 16.0562 88.1346 15.9187 89.0452 15.6438C89.973 15.3689 90.7462 14.7418 91.3647 13.7625C91.9833 12.7831 92.2925 11.3141 92.2925 9.35538C92.2925 7.41386 91.9833 5.95342 91.3647 4.97407C90.7462 3.99472 89.973 3.36759 89.0452 3.09269C88.1174 2.8006 86.992 2.65456 85.669 2.65456H82.3702V16.0562H85.669Z" fill="#171615"/>
<path d="M101.374 0.283496H106.348L112.456 18.453H109.57L107.328 11.7522H100.343L98.1012 18.453H95.2405L101.374 0.283496ZM106.529 9.38115L103.848 1.34016L101.142 9.38115H106.529Z" fill="#171615"/>
<path d="M125.696 0.283496L120 10.9017H119.047V18.453H116.315V10.9017H115.361L109.691 0.283496H112.603L117.681 10.1028L122.758 0.283496H125.696Z" fill="#171615"/>
<path d="M141.101 13.5305C141.101 17.0012 138.713 18.7365 133.936 18.7365C131.119 18.7365 128.988 18.1266 127.545 16.9067C126.101 15.6696 125.38 13.8999 125.38 11.5976H128.189C128.189 13.247 128.662 14.4669 129.607 15.2573C130.569 16.0476 132.029 16.4428 133.988 16.4428C135.465 16.4428 136.548 16.2194 137.235 15.7727C137.94 15.3088 138.292 14.6044 138.292 13.6594C138.292 13.0065 138.06 12.4481 137.596 11.9842C137.149 11.5031 136.462 11.1423 135.534 10.9017L130.251 9.53578C127.553 8.83134 126.205 7.285 126.205 4.89675C126.205 3.29887 126.772 2.08756 127.906 1.26285C129.04 0.420949 130.68 0 132.828 0C135.337 0 137.244 0.558402 138.55 1.67521C139.873 2.77483 140.534 4.32117 140.534 6.31424H137.699C137.699 3.61673 136.075 2.26797 132.828 2.26797C130.285 2.26797 129.014 3.11846 129.014 4.81944C129.014 5.42079 129.211 5.92765 129.607 6.34001C130.002 6.75237 130.646 7.07882 131.539 7.31936L136.72 8.60798C138.18 8.98597 139.271 9.59592 139.993 10.4378C140.732 11.2625 141.101 12.2934 141.101 13.5305Z" fill="#171615"/>
</svg>
