<svg width="19" height="12" viewBox="0 0 19 12" fill="none" xmlns="http://www.w3.org/2000/svg">
<path fill-rule="evenodd" clip-rule="evenodd" d="M0.144011 0.153923C0.0647727 0.238385 0 2.93838 0 6.15392V12H5.61364H11.2273V6V0H5.75765C2.74917 0 0.223034 0.0692307 0.144011 0.153923ZM12.0909 0.461538C12.0909 0.800077 12.2349 0.923077 12.6307 0.923077C13.1465 0.923077 13.1705 0.984692 13.1705 2.30769C13.1705 3.53838 13.2184 3.69231 13.6023 3.69231C13.9862 3.69231 14.0341 3.53838 14.0341 2.30769C14.0341 1.077 14.082 0.923077 14.4659 0.923077C14.7537 0.923077 14.8977 0.769154 14.8977 0.461538C14.8977 0.0473077 14.7537 0 13.4943 0C12.2349 0 12.0909 0.0473077 12.0909 0.461538ZM15.3295 1.84615C15.3295 3.53838 15.3656 3.69231 15.7614 3.69231C16.1135 3.69231 16.1962 3.53262 16.2096 2.82692L16.226 1.96154L16.4987 2.76923C16.8662 3.85823 17.4103 3.93738 17.8075 2.95985L18.1195 2.19231L18.1279 2.94231C18.1346 3.53538 18.2266 3.69231 18.5682 3.69231C18.9639 3.69231 19 3.53838 19 1.84615V0H18.397C17.8622 0 17.7615 0.123923 17.505 1.09615L17.2162 2.19231L16.8826 1.09615C16.5892 0.131308 16.476 0 15.9393 0H15.3295V1.84615Z" fill="#171615"/>
</svg>
