<svg width="888" height="877" viewBox="0 0 888 877" fill="none" xmlns="http://www.w3.org/2000/svg">
<path opacity="0.15" d="M451.325 502.599L406.92 125.65H495.729L451.325 502.599Z" fill="url(#paint0_linear_7_66)"/>
<path opacity="0.05" d="M440.056 374.132L484.46 751.081H395.651L440.056 374.132Z" fill="url(#paint1_linear_7_66)"/>
<path opacity="0.05" d="M493.149 459.262L195.207 224.117L258.004 161.319L493.149 459.262Z" fill="url(#paint2_linear_7_66)"/>
<path opacity="0.05" d="M394.34 376.39L692.283 611.535L629.485 674.332L394.34 376.39Z" fill="url(#paint3_linear_7_66)"/>
<path opacity="0.05" d="M416.959 446.946L652.103 149.004L714.901 211.801L416.959 446.946Z" fill="url(#paint4_linear_7_66)"/>
<path opacity="0.05" d="M499.83 348.137L264.686 646.079L201.888 583.282L499.83 348.137Z" fill="url(#paint5_linear_7_66)"/>
<path opacity="0.15" d="M385.401 414.137L762.35 369.732V458.542L385.401 414.137Z" fill="url(#paint6_linear_7_66)"/>
<path opacity="0.15" d="M502.599 420.898L125.65 465.303V376.493L502.599 420.898Z" fill="url(#paint7_linear_7_66)"/>
<defs>
<linearGradient id="paint0_linear_7_66" x1="463.45" y1="297.915" x2="462.255" y2="173.209" gradientUnits="userSpaceOnUse">
<stop stop-color="#D9D9D9"/>
<stop offset="1" stop-color="#737373" stop-opacity="0"/>
</linearGradient>
<linearGradient id="paint1_linear_7_66" x1="427.931" y1="578.816" x2="429.126" y2="703.522" gradientUnits="userSpaceOnUse">
<stop stop-color="#D9D9D9"/>
<stop offset="1" stop-color="#737373" stop-opacity="0"/>
</linearGradient>
<linearGradient id="paint2_linear_7_66" x1="356.989" y1="305.954" x2="267.963" y2="218.619" gradientUnits="userSpaceOnUse">
<stop stop-color="#D9D9D9"/>
<stop offset="1" stop-color="#737373" stop-opacity="0"/>
</linearGradient>
<linearGradient id="paint3_linear_7_66" x1="530.5" y1="529.698" x2="619.526" y2="617.033" gradientUnits="userSpaceOnUse">
<stop stop-color="#D9D9D9"/>
<stop offset="1" stop-color="#737373" stop-opacity="0"/>
</linearGradient>
<linearGradient id="paint4_linear_7_66" x1="570.266" y1="310.786" x2="657.601" y2="221.76" gradientUnits="userSpaceOnUse">
<stop stop-color="#D9D9D9"/>
<stop offset="1" stop-color="#737373" stop-opacity="0"/>
</linearGradient>
<linearGradient id="paint5_linear_7_66" x1="346.523" y1="484.297" x2="259.188" y2="573.322" gradientUnits="userSpaceOnUse">
<stop stop-color="#D9D9D9"/>
<stop offset="1" stop-color="#737373" stop-opacity="0"/>
</linearGradient>
<linearGradient id="paint6_linear_7_66" x1="590.085" y1="426.262" x2="714.791" y2="425.067" gradientUnits="userSpaceOnUse">
<stop stop-color="#D9D9D9"/>
<stop offset="1" stop-color="#737373" stop-opacity="0"/>
</linearGradient>
<linearGradient id="paint7_linear_7_66" x1="297.915" y1="408.773" x2="173.209" y2="409.968" gradientUnits="userSpaceOnUse">
<stop stop-color="#D9D9D9"/>
<stop offset="1" stop-color="#737373" stop-opacity="0"/>
</linearGradient>
</defs>
</svg>
