<svg width="1009" height="1014" viewBox="0 0 1009 1014" fill="none" xmlns="http://www.w3.org/2000/svg">
<path opacity="0.15" d="M504.274 502.599L459.869 125.65H548.679L504.274 502.599Z" fill="url(#paint0_linear_10_77)"/>
<path opacity="0.05" d="M504.274 511L548.679 887.949H459.869L504.274 511Z" fill="url(#paint1_linear_10_77)"/>
<path opacity="0.05" d="M502.647 504.647L204.705 269.503L267.503 206.705L502.647 504.647Z" fill="url(#paint2_linear_10_77)"/>
<path opacity="0.05" d="M508.256 512.256L806.199 747.401L743.401 810.199L508.256 512.256Z" fill="url(#paint3_linear_10_77)"/>
<path opacity="0.05" d="M507.256 504.647L742.401 206.705L805.199 269.503L507.256 504.647Z" fill="url(#paint4_linear_10_77)"/>
<path opacity="0.05" d="M502.647 508.256L267.503 806.199L204.705 743.401L502.647 508.256Z" fill="url(#paint5_linear_10_77)"/>
<path opacity="0.15" d="M506 507.274L882.949 462.869V551.679L506 507.274Z" fill="url(#paint6_linear_10_77)"/>
<path opacity="0.15" d="M502.599 507.274L125.65 551.679V462.869L502.599 507.274Z" fill="url(#paint7_linear_10_77)"/>
<defs>
<linearGradient id="paint0_linear_10_77" x1="516.399" y1="297.915" x2="515.204" y2="173.209" gradientUnits="userSpaceOnUse">
<stop stop-color="#D9D9D9"/>
<stop offset="1" stop-color="#737373" stop-opacity="0"/>
</linearGradient>
<linearGradient id="paint1_linear_10_77" x1="492.149" y1="715.684" x2="493.344" y2="840.39" gradientUnits="userSpaceOnUse">
<stop stop-color="#D9D9D9"/>
<stop offset="1" stop-color="#737373" stop-opacity="0"/>
</linearGradient>
<linearGradient id="paint2_linear_10_77" x1="366.487" y1="351.34" x2="277.462" y2="264.005" gradientUnits="userSpaceOnUse">
<stop stop-color="#D9D9D9"/>
<stop offset="1" stop-color="#737373" stop-opacity="0"/>
</linearGradient>
<linearGradient id="paint3_linear_10_77" x1="644.416" y1="665.564" x2="733.442" y2="752.899" gradientUnits="userSpaceOnUse">
<stop stop-color="#D9D9D9"/>
<stop offset="1" stop-color="#737373" stop-opacity="0"/>
</linearGradient>
<linearGradient id="paint4_linear_10_77" x1="660.564" y1="368.487" x2="747.899" y2="279.462" gradientUnits="userSpaceOnUse">
<stop stop-color="#D9D9D9"/>
<stop offset="1" stop-color="#737373" stop-opacity="0"/>
</linearGradient>
<linearGradient id="paint5_linear_10_77" x1="349.34" y1="644.416" x2="262.005" y2="733.442" gradientUnits="userSpaceOnUse">
<stop stop-color="#D9D9D9"/>
<stop offset="1" stop-color="#737373" stop-opacity="0"/>
</linearGradient>
<linearGradient id="paint6_linear_10_77" x1="710.684" y1="519.399" x2="835.39" y2="518.204" gradientUnits="userSpaceOnUse">
<stop stop-color="#D9D9D9"/>
<stop offset="1" stop-color="#737373" stop-opacity="0"/>
</linearGradient>
<linearGradient id="paint7_linear_10_77" x1="297.915" y1="495.149" x2="173.209" y2="496.344" gradientUnits="userSpaceOnUse">
<stop stop-color="#D9D9D9"/>
<stop offset="1" stop-color="#737373" stop-opacity="0"/>
</linearGradient>
</defs>
</svg>
