<svg width="119" height="30" viewBox="0 0 119 30" fill="none" xmlns="http://www.w3.org/2000/svg">
<g id="Component 29" clip-path="url(#clip0_61_7375)">
<g id="&#240;&#159;&#150;&#165; Desktop">
<g id="02 Home">
<g id="Sponzori sekcija">
<g id="HRC logo">
<g id="Group 3">
<mask id="mask0_61_7375" style="mask-type:alpha" maskUnits="userSpaceOnUse" x="0" y="0" width="38" height="30">
<g id="mask 2">
<path id="Vector" d="M0 0.175781H37.6627V29.5386H0V0.175781Z" fill="white"/>
</g>
</mask>
<g mask="url(#mask0_61_7375)">
<path id="Fill 1" fill-rule="evenodd" clip-rule="evenodd" d="M10.8966 16.4968H10.9029C10.9029 18.0087 10.8947 19.5207 10.9067 21.0324C10.9118 21.6793 11.1925 22.1215 11.8678 22.1418C12.5494 22.1625 12.8278 21.7118 12.8891 21.0826C12.9264 20.699 12.9098 20.31 12.9175 19.9235C12.982 16.7082 12.3683 17.154 15.7922 17.1065C16.552 17.0958 16.8039 17.4551 16.7814 18.199C16.7526 19.1474 16.7719 20.0975 16.7889 21.0465C16.8007 21.6987 17.0901 22.1279 17.7632 22.1414C18.4478 22.1549 18.7634 21.6907 18.7688 21.0689C18.7956 18.0456 18.808 15.0218 18.7705 11.9989C18.7599 11.1632 18.0138 10.7414 17.3342 11.0788C16.7194 11.3843 16.7857 11.9844 16.7767 12.5435C16.7279 15.5937 16.7299 15.5748 13.8499 15.415C13.142 15.3758 12.8925 15.0659 12.9144 14.3728C12.9367 13.6704 12.9152 12.9667 12.9138 12.2635C12.9124 11.5474 12.7043 10.9891 11.899 10.9931C11.0902 10.9971 10.8974 11.5683 10.8968 12.2774C10.896 13.6839 10.8966 15.0903 10.8966 16.4968ZM20.2079 16.4426C20.2079 17.8813 20.2059 19.3198 20.2087 20.7585C20.2099 21.4276 20.2813 22.1019 21.1126 22.1211C21.94 22.1403 22.0597 21.4913 22.0645 20.8079C22.0688 20.2465 22.0404 19.6831 22.0765 19.124C22.1098 18.6073 21.8555 17.8933 22.6437 17.7579C23.3491 17.6363 24.0682 17.6083 24.4752 18.4567C24.9571 19.4608 25.4797 20.4435 25.9701 21.4434C26.2548 22.0243 26.6813 22.3384 27.2797 22.0612C27.8851 21.7808 27.7951 21.1968 27.5902 20.6961C27.2739 19.9224 26.9338 19.1519 26.5247 18.4284C26.1177 17.7087 26.1589 17.2238 26.807 16.6371C27.8673 15.6771 27.9928 14.3721 27.528 13.0615C27.064 11.7525 26.0471 11.0714 24.7322 10.9876C23.5896 10.9151 22.4393 10.9803 21.2929 10.9642C20.52 10.9535 20.1976 11.3432 20.2055 12.1266C20.2203 13.5649 20.2097 15.0038 20.2079 16.4426ZM18.5377 29.5317C15.6309 29.5319 12.7242 29.5393 9.81747 29.5302C4.27901 29.5129 0.121208 25.4176 0.00257026 19.6633C-0.0534025 16.9472 0.802413 14.4578 2.80567 12.5587C3.43171 11.9652 3.77018 11.3337 3.91255 10.4304C4.75762 5.06307 9.58445 1.73599 14.6916 2.96268C15.3616 3.12345 15.807 2.97935 16.334 2.53606C22.2477 -2.44012 30.8417 0.855531 32.2684 8.64651C32.4173 9.45966 32.705 10.0201 33.3897 10.499C38.0851 13.783 39.0659 20.8752 35.5584 25.5115C33.5045 28.2269 30.8269 29.5 27.5618 29.5264C24.5539 29.5507 21.5456 29.5315 18.5377 29.5317Z" fill="#2D2C2C"/>
</g>
</g>
<path id="Fill 4" fill-rule="evenodd" clip-rule="evenodd" d="M58.7351 13.985C58.7355 15.8815 58.7355 15.8815 60.2775 15.8809C62.0702 15.88 62.7839 15.355 62.7829 14.0387C62.7821 12.6822 61.8639 12.0152 60.0041 12.0203C58.7393 12.0238 58.7347 12.0313 58.7351 13.985ZM56.2948 16.2711C56.2946 14.5205 56.3167 12.7694 56.2846 11.0195C56.2699 10.2138 56.522 9.81501 57.3332 9.86266C59.0188 9.96139 60.7222 9.65661 62.393 10.0745C64.0193 10.4812 65.0512 11.6349 65.2214 13.1791C65.4366 15.1329 64.8113 16.5012 63.1743 17.3037C62.4323 17.6674 62.5065 17.9945 62.8775 18.5828C63.5526 19.6528 64.1606 20.7695 64.8254 21.8469C65.2245 22.4934 65.0605 22.6763 64.3687 22.7456C63.1655 22.8662 62.2972 22.5593 61.7651 21.2825C61.3597 20.3095 60.7352 19.439 60.2141 18.5193C59.9789 18.1046 59.7289 17.7026 59.1879 17.8507C58.6433 17.9999 58.7501 18.5054 58.742 18.914C58.7239 19.8069 58.6909 20.7032 58.745 21.5926C58.8079 22.6247 58.267 22.7482 57.4806 22.7467C56.7197 22.7452 56.2581 22.5883 56.2821 21.6299C56.3269 19.8449 56.295 18.0576 56.2948 16.2711Z" fill="#2D2C2C"/>
<g id="Group 8">
<mask id="mask1_61_7375" style="mask-type:alpha" maskUnits="userSpaceOnUse" x="109" y="9" width="10" height="15">
<g id="mask 4">
<path id="Vector_2" d="M109.055 9.85742H118.517V23.3058H109.055V9.85742Z" fill="white"/>
</g>
</mask>
<g mask="url(#mask1_61_7375)">
<path id="Fill 6" fill-rule="evenodd" clip-rule="evenodd" d="M116.161 18.2596C116.172 16.4687 115.314 15.3914 113.854 15.3639C112.388 15.3364 111.472 16.4089 111.458 18.1678C111.445 19.9058 112.372 21.0399 113.806 21.0399C115.133 21.0401 116.151 19.8379 116.161 18.2596ZM116.167 14.7627C116.167 13.3213 116.19 12.1267 116.16 10.9336C116.135 9.88143 116.76 9.87889 117.461 9.85858C118.195 9.83701 118.523 10.1131 118.518 10.9554C118.493 14.5488 118.509 18.1424 118.507 21.736C118.507 22.4358 118.634 23.2054 117.594 23.1859C116.756 23.1701 115.909 23.2669 116.164 21.9558C115.951 21.7796 115.859 21.8949 115.776 21.9922C114.655 23.3071 113.295 23.5904 111.768 23.04C110.299 22.5103 109.46 21.3403 109.21 19.7343C109.004 18.4145 108.937 17.0642 109.43 15.7776C110.513 12.9572 113.666 12.2405 115.707 14.3426C115.795 14.4337 115.894 14.5139 116.167 14.7627Z" fill="#2D2C2C"/>
</g>
</g>
<path id="Fill 9" fill-rule="evenodd" clip-rule="evenodd" d="M53.8771 16.3615C53.8775 18.1161 53.8407 19.8723 53.8911 21.6255C53.9215 22.6701 53.4106 22.7674 52.6684 22.7698C51.9349 22.7719 51.4898 22.5998 51.5286 21.644C51.5747 20.5002 51.5204 19.3521 51.5418 18.2065C51.5551 17.4941 51.3164 17.1442 50.6366 17.1623C49.6004 17.1899 48.563 17.1838 47.5266 17.166C46.9031 17.155 46.6537 17.4758 46.6615 18.1454C46.6751 19.3269 46.629 20.5103 46.6697 21.6903C46.7037 22.6854 46.1818 22.7646 45.4868 22.7665C44.7823 22.7685 44.3046 22.6594 44.3126 21.6767C44.3422 18.0957 44.3424 14.5141 44.3126 10.9331C44.3044 9.94524 44.7913 9.84777 45.4907 9.84669C46.1878 9.84583 46.7098 9.93211 46.6697 10.926C46.628 11.9624 46.6755 13.0027 46.6621 14.0411C46.6535 14.7092 46.9062 15.0343 47.5276 15.0253C48.5642 15.0102 49.6016 15.0042 50.6378 15.029C51.3172 15.0451 51.5553 14.6864 51.5412 13.9774C51.5208 12.9395 51.5667 11.8994 51.5331 10.8621C51.4988 9.81313 52.1231 9.86756 52.7665 9.85164C53.4311 9.83507 53.9032 9.95363 53.8864 10.8823C53.8533 12.708 53.8767 14.5349 53.8771 16.3615Z" fill="#2D2C2C"/>
<path id="Fill 11" fill-rule="evenodd" clip-rule="evenodd" d="M75.6686 10.4619C78.3572 10.4675 80.2836 11.6457 81.1801 13.8334C81.5663 14.7758 81.4553 14.9244 80.4506 14.9844C79.5614 15.0377 78.887 14.8865 78.295 14.0404C77.4923 12.8935 76.1969 12.6299 74.8691 12.8924C73.5873 13.1458 72.763 14.0042 72.341 15.2375C71.9594 16.3516 71.9575 17.4861 72.3539 18.5954C72.7871 19.8076 73.5434 20.7239 74.8765 20.9207C76.3241 21.1342 77.6138 20.8426 78.5209 19.5342C78.953 18.911 80.5775 18.5472 81.1794 18.9031C81.5741 19.1365 81.4092 19.4519 81.2902 19.7419C80.8779 20.7458 80.3084 21.6242 79.4076 22.2683C77.5141 23.6221 74.2854 23.7724 72.3715 22.5687C70.2755 21.2507 69.0926 18.3941 69.5514 15.7593C70.1461 12.3451 72.3285 10.4551 75.6686 10.4619Z" fill="#2D2C2C"/>
<path id="Fill 13" fill-rule="evenodd" clip-rule="evenodd" d="M94.448 18.4161C94.4385 16.7278 93.5755 15.7156 92.1507 15.7207C90.7057 15.726 89.8332 16.7973 89.8517 18.5433C89.869 20.19 90.7993 21.2373 92.2124 21.2002C93.6088 21.1638 94.4578 20.1065 94.448 18.4161ZM92.2604 13.5383C94.952 13.5599 97.0381 15.7447 97.0013 18.5032C96.9644 21.2737 94.8884 23.4474 92.1706 23.3828C89.2392 23.3132 87.3092 21.3366 87.427 18.3141C87.5388 15.446 89.4091 13.5153 92.2604 13.5383Z" fill="#2D2C2C"/>
<path id="Fill 15" fill-rule="evenodd" clip-rule="evenodd" d="M104.701 21.8341C103.612 23.1457 102.386 23.6312 100.883 23.2669C99.5299 22.9387 98.7463 21.9971 98.4596 20.6193C98.0216 18.5136 98.2544 16.3667 98.2794 14.239C98.2906 13.2678 99.1127 13.6211 99.6349 13.5659C100.199 13.5062 100.57 13.7194 100.567 14.4193C100.559 15.9335 100.522 17.4508 100.595 18.9617C100.684 20.8317 101.965 21.7473 103.515 21.1321C104.53 20.7289 104.773 19.8032 104.805 18.8047C104.85 17.4293 104.861 16.0497 104.809 14.6753C104.773 13.7034 105.226 13.5446 105.997 13.5382C106.792 13.5318 107.182 13.7502 107.164 14.6964C107.12 17.036 107.168 19.3777 107.138 21.7177C107.13 22.3285 107.448 23.1782 106.381 23.2693C105.122 23.3771 104.947 23.2654 104.701 21.8341Z" fill="#2D2C2C"/>
<path id="Fill 17" fill-rule="evenodd" clip-rule="evenodd" d="M83.2425 16.2208C83.2427 14.4452 83.2735 12.6689 83.2303 10.8944C83.2072 9.96028 83.689 9.8381 84.4106 9.84712C85.1012 9.85553 85.6289 9.89611 85.6208 10.8604C85.5902 14.4796 85.5898 18.0994 85.6214 21.7184C85.6295 22.6497 85.1652 22.7588 84.4426 22.7692C83.6602 22.7807 83.2003 22.6173 83.2277 21.6493C83.2787 19.8413 83.2423 18.0305 83.2425 16.2208Z" fill="#2D2C2C"/>
<path id="Fill 19" fill-rule="evenodd" clip-rule="evenodd" d="M23.9349 15.3828C23.3776 15.2642 22.6402 15.6208 22.3614 15.0383C22.0311 14.3477 22.1641 13.5561 22.3141 12.8086C22.3315 12.7218 22.4157 12.6336 22.4928 12.5724C23.296 11.9345 25.843 12.5359 26.2457 13.4548C26.5739 14.203 26.0806 15.0702 25.1617 15.2781C24.7576 15.3695 24.3254 15.3526 23.9349 15.3828Z" fill="#2D2C2C"/>
</g>
</g>
</g>
</g>
</g>
<defs>
<clipPath id="clip0_61_7375">
<rect width="119" height="30" fill="white"/>
</clipPath>
</defs>
</svg>
