<svg width="16" height="5" viewBox="0 0 16 5" fill="none" xmlns="http://www.w3.org/2000/svg">
<path d="M0.461426 4.36906V0.981628H1.90351C2.64874 0.981628 3.07459 1.44619 3.07459 2.08012C3.07459 2.71406 2.64874 3.17862 1.90351 3.17862H1.32764V4.36906H0.461426ZM1.32764 2.4721H1.84544C2.12127 2.4721 2.25193 2.28821 2.25193 2.08012C2.25193 1.87204 2.12127 1.68815 1.84544 1.68815H1.32764V2.4721Z" fill="white"/>
<path d="M4.38719 2.58824C4.12104 2.58824 3.96618 2.79148 3.96618 3.13507V4.36906H3.16772V1.93011H3.96618V2.29789C4.10652 2.00754 4.28557 1.93011 4.55657 1.93011H4.81304V2.58824H4.38719Z" fill="white"/>
<path d="M5.98754 4.40777C5.22779 4.40777 4.68096 3.87062 4.68096 3.14959C4.68096 2.42855 5.22779 1.8914 5.98754 1.8914C6.7473 1.8914 7.29412 2.42855 7.29412 3.14959C7.29412 3.87062 6.7473 4.40777 5.98754 4.40777ZM5.47943 3.14959C5.47943 3.49801 5.68267 3.73029 5.98754 3.73029C6.29241 3.73029 6.49566 3.49801 6.49566 3.14959C6.49566 2.80116 6.29241 2.56888 5.98754 2.56888C5.68267 2.56888 5.47943 2.80116 5.47943 3.14959Z" fill="white"/>
<path d="M7.69569 4.36906V2.58824H7.24565V1.93011H7.69569V1.72686C7.69569 1.19939 8.08767 0.84613 8.67321 0.84613H9.16197V1.50426H8.79419C8.61514 1.50426 8.49416 1.61072 8.49416 1.77526V1.93011H9.37232V2.58824H8.49416V4.36906H7.69569Z" fill="white"/>
<path d="M9.33797 4.36906V1.93011H10.1364V4.36906H9.33797Z" fill="white"/>
<path d="M11.5227 4.40777C10.7726 4.40777 10.2355 3.88514 10.2355 3.14959C10.2355 2.41403 10.7726 1.8914 11.5227 1.8914C12.205 1.8914 12.718 2.30757 12.7519 2.88343H11.9486C11.9098 2.69954 11.7453 2.56888 11.5517 2.56888C11.2565 2.56888 11.063 2.79632 11.063 3.14959C11.063 3.50285 11.2614 3.73029 11.5614 3.73029C11.7598 3.73029 11.9244 3.59479 11.9582 3.4109H12.7761C12.7131 3.96741 12.1615 4.40777 11.5227 4.40777Z" fill="white"/>
<path d="M14.1377 4.40777C13.378 4.40777 12.8311 3.87062 12.8311 3.14959C12.8311 2.42855 13.378 1.8914 14.1377 1.8914C14.8975 1.8914 15.4443 2.42855 15.4443 3.14959C15.4443 3.87062 14.8975 4.40777 14.1377 4.40777ZM13.6296 3.14959C13.6296 3.49801 13.8329 3.73029 14.1377 3.73029C14.4426 3.73029 14.6458 3.49801 14.6458 3.14959C14.6458 2.80116 14.4426 2.56888 14.1377 2.56888C13.8329 2.56888 13.6296 2.80116 13.6296 3.14959Z" fill="white"/>
</svg>
