<svg width="80" height="80" viewBox="0 0 80 80" fill="none" xmlns="http://www.w3.org/2000/svg">
  <!-- Top-left corner bracket -->
  <rect x="4" y="4" width="28" height="28" rx="4" fill="white"/>
  <rect x="10" y="10" width="16" height="16" rx="2" fill="#2d2d2d"/>
  <!-- Top-right corner bracket -->
  <rect x="48" y="4" width="28" height="28" rx="4" fill="white"/>
  <rect x="54" y="10" width="16" height="16" rx="2" fill="#2d2d2d"/>
  <!-- Bottom-left corner bracket -->
  <rect x="4" y="48" width="28" height="28" rx="4" fill="white"/>
  <rect x="10" y="54" width="16" height="16" rx="2" fill="#2d2d2d"/>
  <!-- Center dots -->
  <rect x="36" y="4" width="8" height="8" rx="2" fill="white" opacity="0.8"/>
  <rect x="4" y="36" width="8" height="8" rx="2" fill="white" opacity="0.8"/>
  <rect x="36" y="36" width="8" height="8" rx="2" fill="white" opacity="0.8"/>
  <!-- Bottom-right area -->
  <rect x="48" y="48" width="12" height="12" rx="2" fill="white"/>
  <rect x="64" y="48" width="12" height="12" rx="2" fill="white" opacity="0.8"/>
  <rect x="48" y="64" width="12" height="12" rx="2" fill="white" opacity="0.8"/>
  <rect x="64" y="64" width="12" height="12" rx="2" fill="white"/>

</svg>
