<svg width="37" height="54" viewBox="0 0 37.3432 54.4003" fill="none" xmlns="http://www.w3.org/2000/svg">
<path d="M34.5689 34.1179C36.8238 31.7922 37.6859 29.0013 37.2217 25.7452C36.89 23.2865 35.4974 21.3595 33.773 19.6318C28.3349 14.1164 22.8967 8.66741 17.3922 3.15203C14.3415 0.0952935 10.8266 -0.768556 6.71485 0.693402C2.7357 2.08882 0.149251 5.27847 0.0829314 9.26552C-0.049707 15.1795 0.0165474 27.0742 0.0165474 27.0742C0.0165474 32.058 0.0165474 37.0418 0.0165474 42.0259C0.0165474 43.6203 0.0165475 45.2818 0.348144 46.8101C2.07244 54.4517 11.8877 56.9108 17.1932 51.4612C23.0293 45.6801 28.8655 39.9652 34.5689 34.1179Z" fill="#F5EDE1"/>
</svg>
