<svg width="37" height="37" viewBox="0 0 37 37" fill="none" xmlns="http://www.w3.org/2000/svg">
<g id="Play">
<rect x="0.849609" y="0.506836" width="35.9325" height="35.9325" rx="17.9662" fill="#FF482F"/>
<path id="Vector" d="M25.7662 20.758C26.512 19.9899 26.7972 19.0682 26.6436 17.9928C26.5339 17.1808 26.0733 16.5444 25.5029 15.9738C23.7042 14.1523 21.9054 12.3527 20.0848 10.5312C19.0757 9.52171 17.9131 9.23641 16.5531 9.71924C15.2369 10.1801 14.3814 11.2335 14.3595 12.5503C14.3156 14.5034 14.3375 18.4318 14.3375 18.4318C14.3375 20.0777 14.3375 21.7237 14.3375 23.3697C14.3375 23.8963 14.3375 24.445 14.4472 24.9497C15.0175 27.4734 18.2641 28.2856 20.0189 26.4858C21.9493 24.5766 23.8797 22.6891 25.7662 20.758Z" fill="white"/>
</g>
</svg>
