<svg width="24" height="24" viewBox="0 0 24 24" fill="none" xmlns="http://www.w3.org/2000/svg">
<circle cx="12.0042" cy="9.75" r="2.75" stroke="#E9E9EC" stroke-linecap="round" stroke-linejoin="round"/>
<path d="M15.3712 16.0379C14.9448 14.5398 13.5797 13.5038 12.0221 13.4961C10.4645 13.4885 9.0893 14.5111 8.64819 16.0049" stroke="#E9E9EC" stroke-linecap="round" stroke-linejoin="round"/>
<path d="M6.50415 18.0225H17.5042" stroke="#E9E9EC" stroke-linecap="round" stroke-linejoin="round"/>
<path d="M9.00415 23.5005L7.50415 18.0225H16.5042L15.0042 23.5005" stroke="#E9E9EC" stroke-linecap="round" stroke-linejoin="round"/>
<path d="M12 20.2725C11.8619 20.2725 11.75 20.3844 11.75 20.5225C11.75 20.6605 11.8619 20.7725 12 20.7725C12.1381 20.7725 12.25 20.6605 12.25 20.5225C12.25 20.3844 12.1381 20.2725 12 20.2725V20.2725" stroke="#E9E9EC" stroke-linecap="round" stroke-linejoin="round"/>
<path d="M5.50008 15.5H1.50708C0.954795 15.5 0.50708 15.0523 0.50708 14.5V1.5C0.50708 0.947715 0.954795 0.5 1.50708 0.5H22.5001C23.0524 0.5 23.5001 0.947715 23.5001 1.5V14.5C23.5001 15.0523 23.0524 15.5 22.5001 15.5H18.5001" stroke="#E9E9EC" stroke-linecap="round" stroke-linejoin="round"/>
</svg>
